<svg id="SvgjsSvg1014" xmlns="http://www.w3.org/2000/svg" version="1.1" xmlns:xlink="http://www.w3.org/1999/xlink" xmlns:svgjs="http://svgjs.com/svgjs" width="32" height="33"><defs id="SvgjsDefs1015"></defs><path id="SvgjsPath1016" d="M60.07 1687.04C60.07 1694.23 54.24 1700.07 47.04 1700.07C39.839999999999996 1700.07 34 1694.23 34 1687.04C34 1679.84 39.84 1674 47.04 1674 " fill-opacity="0" fill="#ffffff" stroke-dasharray="0" stroke-linejoin="round" stroke-linecap="round" stroke-opacity="1" stroke="#ffffff" stroke-miterlimit="50" stroke-width="2" transform="matrix(1,0,0,1,-33,-1669)"></path><path id="SvgjsPath1017" d="M49.52 1687.26C49.52 1689.06 48.06 1690.52 46.260000000000005 1690.52C44.46000000000001 1690.52 43.00000000000001 1689.06 43.00000000000001 1687.26C43.00000000000001 1685.46 44.46000000000001 1684 46.260000000000005 1684C48.06 1684 49.52 1685.46 49.52 1687.26Z " fill-opacity="0" fill="#ffffff" stroke-dasharray="0" stroke-linejoin="round" stroke-linecap="round" stroke-opacity="1" stroke="#ffffff" stroke-miterlimit="50" stroke-width="2" transform="matrix(1,0,0,1,-33,-1669)"></path><path id="SvgjsPath1018" d="M55.58 1695.58L49 1689 " fill-opacity="0" fill="#ffffff" stroke-dasharray="0" stroke-linejoin="round" stroke-linecap="round" stroke-opacity="1" stroke="#ffffff" stroke-miterlimit="50" stroke-width="2" transform="matrix(1,0,0,1,-33,-1669)"></path><path id="SvgjsPath1019" d="M50 1687L60 1687 " fill-opacity="0" fill="#ffffff" stroke-dasharray="0" stroke-linejoin="round" stroke-linecap="round" stroke-opacity="1" stroke="#ffffff" stroke-miterlimit="50" stroke-width="2" transform="matrix(1,0,0,1,-33,-1669)"></path><path id="SvgjsPath1020" d="M46 1683L46 1674 " fill-opacity="0" fill="#ffffff" stroke-dasharray="0" stroke-linejoin="round" stroke-linecap="round" stroke-opacity="1" stroke="#ffffff" stroke-miterlimit="50" stroke-width="2" transform="matrix(1,0,0,1,-33,-1669)"></path><path id="SvgjsPath1021" d="M63.15 1684.74C63.15 1676.74 56 1670 48 1670L48 1681.22C50 1681.22 51.92 1682.74 51.92 1684.74L63.150000000000006 1684.74Z " fill-opacity="0" fill="#ffffff" stroke-dasharray="0" stroke-linejoin="round" stroke-linecap="round" stroke-opacity="1" stroke="#ffffff" stroke-miterlimit="50" stroke-width="2" transform="matrix(1,0,0,1,-33,-1669)"></path><path id="SvgjsPath1022" d="M60.07 1687.04C60.07 1694.23 54.24 1700.07 47.04 1700.07C39.839999999999996 1700.07 34 1694.23 34 1687.04C34 1679.84 39.84 1674 47.04 1674 " fill-opacity="0" fill="#ffffff" stroke-dasharray="0" stroke-linejoin="round" stroke-linecap="round" stroke-opacity="1" stroke="#ffffff" stroke-miterlimit="50" stroke-width="2" transform="matrix(1,0,0,1,-33,-1669)"></path><path id="SvgjsPath1023" d="M49.52 1687.26C49.52 1689.06 48.06 1690.52 46.260000000000005 1690.52C44.46000000000001 1690.52 43.00000000000001 1689.06 43.00000000000001 1687.26C43.00000000000001 1685.46 44.46000000000001 1684 46.260000000000005 1684C48.06 1684 49.52 1685.46 49.52 1687.26Z " fill-opacity="0" fill="#ffffff" stroke-dasharray="0" stroke-linejoin="round" stroke-linecap="round" stroke-opacity="1" stroke="#ffffff" stroke-miterlimit="50" stroke-width="2" transform="matrix(1,0,0,1,-33,-1669)"></path><path id="SvgjsPath1024" d="M55.58 1695.58L49 1689 " fill-opacity="0" fill="#ffffff" stroke-dasharray="0" stroke-linejoin="round" stroke-linecap="round" stroke-opacity="1" stroke="#ffffff" stroke-miterlimit="50" stroke-width="2" transform="matrix(1,0,0,1,-33,-1669)"></path><path id="SvgjsPath1025" d="M50 1687L60 1687 " fill-opacity="0" fill="#ffffff" stroke-dasharray="0" stroke-linejoin="round" stroke-linecap="round" stroke-opacity="1" stroke="#ffffff" stroke-miterlimit="50" stroke-width="2" transform="matrix(1,0,0,1,-33,-1669)"></path><path id="SvgjsPath1026" d="M46 1683L46 1674 " fill-opacity="0" fill="#ffffff" stroke-dasharray="0" stroke-linejoin="round" stroke-linecap="round" stroke-opacity="1" stroke="#ffffff" stroke-miterlimit="50" stroke-width="2" transform="matrix(1,0,0,1,-33,-1669)"></path><path id="SvgjsPath1027" d="M63.15 1684.74C63.15 1676.74 56 1670 48 1670L48 1681.22C50 1681.22 51.92 1682.74 51.92 1684.74L63.150000000000006 1684.74Z " fill-opacity="0" fill="#ffffff" stroke-dasharray="0" stroke-linejoin="round" stroke-linecap="round" stroke-opacity="1" stroke="#ffffff" stroke-miterlimit="50" stroke-width="2" transform="matrix(1,0,0,1,-33,-1669)"></path></svg>