<svg id="SvgjsSvg1000" xmlns="http://www.w3.org/2000/svg" version="1.1" xmlns:xlink="http://www.w3.org/1999/xlink" xmlns:svgjs="http://svgjs.com/svgjs" width="27" height="36"><defs id="SvgjsDefs1001"></defs><path id="SvgjsPath1007" d="M46.84 956.69C44.21 956.69 42.080000000000005 954.5600000000001 42.080000000000005 951.94C42.080000000000005 950.84 42.46000000000001 949.7600000000001 43.160000000000004 948.9200000000001L43.160000000000004 948.9100000000001C43.7 948.2700000000001 44.400000000000006 947.7700000000001 45.18000000000001 947.4800000000001C45.38000000000001 944.4200000000002 47.940000000000005 942.0000000000001 51.040000000000006 942.0000000000001C54.290000000000006 942.0000000000001 56.92000000000001 944.6400000000001 56.92000000000001 947.8800000000001C56.92000000000001 951.0600000000001 54.39000000000001 953.6600000000001 51.23000000000001 953.7600000000001C50.91000000000001 954.5200000000001 50.39000000000001 955.2000000000002 49.73000000000001 955.7100000000002C48.89000000000001 956.3500000000001 47.89000000000001 956.6900000000002 46.84000000000001 956.6900000000002ZM53.5 976.75C53.5 977.2 53.13 977.57 52.67 977.57L41 977.57C40.54 977.57 40.17 977.2 40.17 976.75L40.17 967.53C40.17 967.0699999999999 40.54 966.6999999999999 41 966.6999999999999C41.46 966.6999999999999 41.83 967.0699999999999 41.83 967.53L41.83 975.92L51.839999999999996 975.92L51.839999999999996 967.53C51.839999999999996 967.0699999999999 52.209999999999994 966.6999999999999 52.669999999999995 966.6999999999999C53.129999999999995 966.6999999999999 53.49999999999999 967.0699999999999 53.49999999999999 967.53ZM51.04 943.66C48.71 943.66 46.82 945.55 46.82 947.88C46.82 947.93 46.82 947.99 46.82 948.04C46.82 948.05 46.82 948.0699999999999 46.82 948.0899999999999C46.93 950.1999999999999 48.59 951.92 50.69 952.0899999999999C50.699999999999996 952.0899999999999 50.71 952.0899999999999 50.72 952.0899999999999C50.83 952.0999999999999 50.93 952.1099999999999 51.04 952.1099999999999C53.37 952.1099999999999 55.269999999999996 950.2099999999999 55.269999999999996 947.8799999999999C55.269999999999996 945.5499999999998 53.37 943.6599999999999 51.03999999999999 943.6599999999999ZM44.44 949.97C43.98 950.52 43.73 951.22 43.73 951.94C43.73 953.6500000000001 45.12 955.0400000000001 46.839999999999996 955.0400000000001C47.519999999999996 955.0400000000001 48.18 954.82 48.72 954.4000000000001C49.03 954.1600000000001 49.28 953.8800000000001 49.48 953.5500000000001C47.419999999999995 952.98 45.809999999999995 951.32 45.31999999999999 949.23C44.989999999999995 949.4200000000001 44.68999999999999 949.6700000000001 44.43999999999999 949.97ZM48.67 947.36L50.38 944.99C50.650000000000006 944.62 51.160000000000004 944.54 51.54 944.8C51.91 945.0699999999999 51.99 945.5899999999999 51.72 945.9599999999999L50.96 947.0199999999999L52.74 947.0199999999999C53.050000000000004 947.0199999999999 53.330000000000005 947.1899999999998 53.47 947.4599999999999C53.62 947.7299999999999 53.6 948.06 53.42 948.31L51.730000000000004 950.76C51.57000000000001 950.99 51.31 951.11 51.050000000000004 951.11C50.89000000000001 951.11 50.720000000000006 951.07 50.580000000000005 950.97C50.2 950.71 50.11000000000001 950.19 50.370000000000005 949.82L51.160000000000004 948.6700000000001L49.34 948.6700000000001C49.03 948.6700000000001 48.75 948.5000000000001 48.61000000000001 948.22C48.470000000000006 947.95 48.49000000000001 947.61 48.67000000000001 947.36ZM46.84 962.34L45.81 960.4300000000001L47.86 960.4300000000001ZM55.46 963.63C54.410000000000004 961.55 52.53 958.78 48.410000000000004 958.78L45.260000000000005 958.78C41.14000000000001 958.78 39.260000000000005 961.55 38.21000000000001 963.63L34.09000000000001 971.8C33.88000000000001 972.2099999999999 34.05000000000001 972.6999999999999 34.46000000000001 972.91C34.86000000000001 973.12 35.36000000000001 972.9499999999999 35.57000000000001 972.54L39.690000000000005 964.38C40.53000000000001 962.71 41.7 961.01 43.99 960.55L46.11 964.4799999999999C46.25 964.7499999999999 46.53 964.92 46.839999999999996 964.92C47.13999999999999 964.92 47.419999999999995 964.75 47.559999999999995 964.4799999999999L49.67999999999999 960.55C51.96999999999999 961.01 53.13999999999999 962.7099999999999 53.97999999999999 964.38L58.09999999999999 972.54C58.249999999999986 972.8299999999999 58.539999999999985 973 58.83999999999999 973C58.96999999999999 973 59.09999999999999 972.97 59.21999999999999 972.91C59.61999999999999 972.6999999999999 59.78999999999999 972.2099999999999 59.57999999999999 971.8Z " fill="#ffffff" fill-opacity="1" transform="matrix(1,0,0,1,-33,-942)"></path></svg>