<svg id="SvgjsSvg1055" xmlns="http://www.w3.org/2000/svg" version="1.1" xmlns:xlink="http://www.w3.org/1999/xlink" xmlns:svgjs="http://svgjs.com/svgjs" width="25.738935797298033" height="96.74687405716509"><defs id="SvgjsDefs1056"></defs><path id="SvgjsPath1057" d="M50.06 1520.23C50.06 1520.23 26.000000000000004 1507.33 26.000000000000004 1474.1200000000001C26.000000000000004 1440.9 50.06 1428.0000000000002 50.06 1428.0000000000002 " fill-opacity="0" fill="#ffffff" stroke-dasharray="0" stroke-linejoin="miter" stroke-linecap="butt" stroke-opacity="1" stroke="#e0e4ea" stroke-miterlimit="50" stroke-width="1" transform="matrix(1,0,0,1,-25.63186841717532,-1427.5593417236028)"></path><path id="SvgjsPath1058" d="M46.84314 1505.80311L50.616859999999996 1519.8868300000001L36.53814 1523.65189 " fill-opacity="0" fill="#ffffff" stroke-dasharray="0" stroke-linejoin="miter" stroke-linecap="butt" stroke-opacity="1" stroke="#e0e4ea" stroke-miterlimit="50" stroke-width="1" transform="matrix(1,0,0,1,-25.63186841717532,-1427.5593417236028)"></path><path id="SvgjsPath1059" d="M50.06 1520.23C50.06 1520.23 26.000000000000004 1507.33 26.000000000000004 1474.1200000000001C26.000000000000004 1440.9 50.06 1428.0000000000002 50.06 1428.0000000000002 " fill-opacity="0" fill="#ffffff" stroke-dasharray="0" stroke-linejoin="miter" stroke-linecap="butt" stroke-opacity="1" stroke="#e0e4ea" stroke-miterlimit="50" stroke-width="1" transform="matrix(1,0,0,1,-25.63186841717532,-1427.5593417236028)"></path><path id="SvgjsPath1060" d="M46.84314 1505.80311L50.616859999999996 1519.8868300000001L36.53814 1523.65189 " fill-opacity="0" fill="#ffffff" stroke-dasharray="0" stroke-linejoin="miter" stroke-linecap="butt" stroke-opacity="1" stroke="#e0e4ea" stroke-miterlimit="50" stroke-width="1" transform="matrix(1,0,0,1,-25.63186841717532,-1427.5593417236028)"></path></svg>