<svg id="SvgjsSvg1017" xmlns="http://www.w3.org/2000/svg" version="1.1" xmlns:xlink="http://www.w3.org/1999/xlink" xmlns:svgjs="http://svgjs.com/svgjs" width="51" height="33"><defs id="SvgjsDefs1018"></defs><path id="SvgjsPath1019" d="M90.02 1549.98L90.02 1548.55L136.7 1548.55L136.7 1549.98ZM96.09 1544.01C97.71000000000001 1544.01 99.09 1545.08 99.53 1546.55L91.83 1546.55C92.27 1545.08 93.64 1544.01 95.26 1544.01ZM93.36 1572.16C92.74 1572.16 92.24 1571.67 92.24 1571.0600000000002C92.24 1570.4500000000003 92.74 1569.9600000000003 93.36 1569.9600000000003C93.97 1569.9600000000003 94.47 1570.4500000000003 94.47 1571.0600000000002C94.47 1571.67 93.97 1572.16 93.36 1572.16ZM133.67 1572.16C133.05999999999997 1572.16 132.55999999999997 1571.67 132.55999999999997 1571.0600000000002C132.55999999999997 1570.4500000000003 133.05999999999997 1569.9600000000003 133.67 1569.9600000000003C134.28 1569.9600000000003 134.78 1570.4500000000003 134.78 1571.0600000000002C134.78 1571.67 134.28 1572.16 133.67 1572.16ZM101.6 1546.55C101.11999999999999 1543.96 98.83999999999999 1542 96.08999999999999 1542L95.25999999999999 1542C92.52 1542 90.24 1543.96 89.75999999999999 1546.55L89.00999999999999 1546.55C88.44999999999999 1546.55 87.99999999999999 1547 87.99999999999999 1547.55L87.99999999999999 1550.98C87.99999999999999 1551.53 88.44999999999999 1551.98 89.00999999999999 1551.98L92.33999999999999 1551.98L92.33999999999999 1568.1200000000001C91.10999999999999 1568.5400000000002 90.21999999999998 1569.7 90.21999999999998 1571.0600000000002C90.21999999999998 1572.7700000000002 91.62999999999998 1574.16 93.35999999999999 1574.16C95.07999999999998 1574.16 96.48999999999998 1572.77 96.48999999999998 1571.0600000000002C96.48999999999998 1569.7000000000003 95.59999999999998 1568.5400000000002 94.36999999999998 1568.1200000000001L94.36999999999998 1560.3400000000001L125.83999999999997 1560.3400000000001C126.39999999999998 1560.3400000000001 126.84999999999998 1559.89 126.84999999999998 1559.3300000000002C126.84999999999998 1558.7800000000002 126.39999999999998 1558.3300000000002 125.83999999999997 1558.3300000000002L94.36999999999998 1558.3300000000002L94.36999999999998 1551.9800000000002L132.65999999999997 1551.9800000000002L132.65999999999997 1568.1200000000003C131.41999999999996 1568.5400000000004 130.53999999999996 1569.7000000000003 130.53999999999996 1571.0600000000004C130.53999999999996 1572.7700000000004 131.93999999999997 1574.1600000000003 133.66999999999996 1574.1600000000003C135.39999999999995 1574.1600000000003 136.79999999999995 1572.7700000000002 136.79999999999995 1571.0600000000004C136.79999999999995 1569.7000000000005 135.90999999999997 1568.5400000000004 134.67999999999995 1568.1200000000003L134.67999999999995 1551.9800000000002L137.70999999999995 1551.9800000000002C138.26999999999995 1551.9800000000002 138.71999999999994 1551.5300000000002 138.71999999999994 1550.9800000000002L138.71999999999994 1547.5500000000002C138.71999999999994 1547.0000000000002 138.26999999999995 1546.5500000000002 137.70999999999995 1546.5500000000002Z " fill="#ffffff" fill-opacity="1" transform="matrix(1,0,0,1,-88,-1542)"></path></svg>