<svg id="SvgjsSvg1000" xmlns="http://www.w3.org/2000/svg" version="1.1" xmlns:xlink="http://www.w3.org/1999/xlink" xmlns:svgjs="http://svgjs.com/svgjs" width="23.213553390593333" height="30"><defs id="SvgjsDefs1001"></defs><path id="SvgjsPath1007" d="M37.52 632.03C37.220000000000006 632.03 36.970000000000006 631.78 36.970000000000006 631.48L36.970000000000006 604.52C36.970000000000006 604.22 37.220000000000006 603.97 37.52 603.97L52.07000000000001 603.97L52.07000000000001 608.15C52.07000000000001 608.99 52.75000000000001 609.67 53.59000000000001 609.67L57.77000000000001 609.67L57.77000000000001 631.4799999999999C57.77000000000001 631.7799999999999 57.52000000000001 632.0299999999999 57.22000000000001 632.0299999999999ZM53.04 604.66L57.08 608.6999999999999L53.589999999999996 608.6999999999999C53.29 608.6999999999999 53.04 608.4499999999999 53.04 608.15ZM52.9 603.14C52.809999999999995 603.05 52.68 603 52.559999999999995 603L37.519999999999996 603C36.67999999999999 603 35.99999999999999 603.68 35.99999999999999 604.52L35.99999999999999 631.48C35.99999999999999 632.32 36.67999999999999 633 37.519999999999996 633L57.22 633C58.06 633 58.74 632.32 58.74 631.48L58.74 609.19C58.74 609.0600000000001 58.690000000000005 608.9300000000001 58.6 608.84Z " fill="#ffffff" fill-opacity="1" transform="matrix(1,0,0,1,-35.893223304703334,-603)"></path><path id="SvgjsPath1008" d="M37.52 632.03C37.220000000000006 632.03 36.970000000000006 631.78 36.970000000000006 631.48L36.970000000000006 604.52C36.970000000000006 604.22 37.220000000000006 603.97 37.52 603.97L52.07000000000001 603.97L52.07000000000001 608.15C52.07000000000001 608.99 52.75000000000001 609.67 53.59000000000001 609.67L57.77000000000001 609.67L57.77000000000001 631.4799999999999C57.77000000000001 631.7799999999999 57.52000000000001 632.0299999999999 57.22000000000001 632.0299999999999ZM53.04 604.66L57.08 608.6999999999999L53.589999999999996 608.6999999999999C53.29 608.6999999999999 53.04 608.4499999999999 53.04 608.15ZM52.9 603.14C52.809999999999995 603.05 52.68 603 52.559999999999995 603L37.519999999999996 603C36.67999999999999 603 35.99999999999999 603.68 35.99999999999999 604.52L35.99999999999999 631.48C35.99999999999999 632.32 36.67999999999999 633 37.519999999999996 633L57.22 633C58.06 633 58.74 632.32 58.74 631.48L58.74 609.19C58.74 609.0600000000001 58.690000000000005 608.9300000000001 58.6 608.84Z " fill-opacity="0" fill="#ffffff" stroke-dasharray="0" stroke-linejoin="miter" stroke-linecap="butt" stroke-opacity="1" stroke="#ffffff" stroke-miterlimit="50" stroke-width="1" transform="matrix(1,0,0,1,-35.893223304703334,-603)"></path><path id="SvgjsPath1009" d="M37.52 632.03C37.220000000000006 632.03 36.970000000000006 631.78 36.970000000000006 631.48L36.970000000000006 604.52C36.970000000000006 604.22 37.220000000000006 603.97 37.52 603.97L52.07000000000001 603.97L52.07000000000001 608.15C52.07000000000001 608.99 52.75000000000001 609.67 53.59000000000001 609.67L57.77000000000001 609.67L57.77000000000001 631.4799999999999C57.77000000000001 631.7799999999999 57.52000000000001 632.0299999999999 57.22000000000001 632.0299999999999ZM53.04 604.66L57.08 608.6999999999999L53.589999999999996 608.6999999999999C53.29 608.6999999999999 53.04 608.4499999999999 53.04 608.15ZM52.9 603.14C52.809999999999995 603.05 52.68 603 52.559999999999995 603L37.519999999999996 603C36.67999999999999 603 35.99999999999999 603.68 35.99999999999999 604.52L35.99999999999999 631.48C35.99999999999999 632.32 36.67999999999999 633 37.519999999999996 633L57.22 633C58.06 633 58.74 632.32 58.74 631.48L58.74 609.19C58.74 609.0600000000001 58.690000000000005 608.9300000000001 58.6 608.84Z " fill="#ffffff" fill-opacity="1" transform="matrix(1,0,0,1,-35.893223304703334,-603)"></path><path id="SvgjsPath1010" d="M37.52 632.03C37.220000000000006 632.03 36.970000000000006 631.78 36.970000000000006 631.48L36.970000000000006 604.52C36.970000000000006 604.22 37.220000000000006 603.97 37.52 603.97L52.07000000000001 603.97L52.07000000000001 608.15C52.07000000000001 608.99 52.75000000000001 609.67 53.59000000000001 609.67L57.77000000000001 609.67L57.77000000000001 631.4799999999999C57.77000000000001 631.7799999999999 57.52000000000001 632.0299999999999 57.22000000000001 632.0299999999999ZM53.04 604.66L57.08 608.6999999999999L53.589999999999996 608.6999999999999C53.29 608.6999999999999 53.04 608.4499999999999 53.04 608.15ZM52.9 603.14C52.809999999999995 603.05 52.68 603 52.559999999999995 603L37.519999999999996 603C36.67999999999999 603 35.99999999999999 603.68 35.99999999999999 604.52L35.99999999999999 631.48C35.99999999999999 632.32 36.67999999999999 633 37.519999999999996 633L57.22 633C58.06 633 58.74 632.32 58.74 631.48L58.74 609.19C58.74 609.0600000000001 58.690000000000005 608.9300000000001 58.6 608.84Z " fill-opacity="0" fill="#ffffff" stroke-dasharray="0" stroke-linejoin="miter" stroke-linecap="butt" stroke-opacity="1" stroke="#ffffff" stroke-miterlimit="50" stroke-width="1" transform="matrix(1,0,0,1,-35.893223304703334,-603)"></path><path id="SvgjsPath1011" d="M47.97 623.25L47.97 611.49C47.97 611.22 47.75 611 47.49 611C47.22 611 47 611.22 47 611.49L47 623.25C47 623.52 47.22 623.74 47.49 623.74C47.75 623.74 47.97 623.52 47.97 623.25 " fill="#ffffff" fill-opacity="1" transform="matrix(1,0,0,1,-35.893223304703334,-603)"></path><path id="SvgjsPath1012" d="M47.97 623.25L47.97 611.49C47.97 611.22 47.75 611 47.49 611C47.22 611 47 611.22 47 611.49L47 623.25C47 623.52 47.22 623.74 47.49 623.74C47.75 623.74 47.97 623.52 47.97 623.25 " fill-opacity="0" fill="#ffffff" stroke-dasharray="0" stroke-linejoin="miter" stroke-linecap="butt" stroke-opacity="1" stroke="#ffffff" stroke-miterlimit="50" stroke-width="1" transform="matrix(1,0,0,1,-35.893223304703334,-603)"></path><path id="SvgjsPath1013" d="M46.88 626C46.39 626 46 626.39 46 626.88C46 627.36 46.39 627.75 46.88 627.75C47.36 627.75 47.75 627.36 47.75 626.88C47.75 626.39 47.36 626 46.88 626 " fill="#ffffff" fill-opacity="1" transform="matrix(1,0,0,1,-35.893223304703334,-603)"></path><path id="SvgjsPath1014" d="M46.88 626C46.39 626 46 626.39 46 626.88C46 627.36 46.39 627.75 46.88 627.75C47.36 627.75 47.75 627.36 47.75 626.88C47.75 626.39 47.36 626 46.88 626 " fill-opacity="0" fill="#ffffff" stroke-dasharray="0" stroke-linejoin="miter" stroke-linecap="butt" stroke-opacity="1" stroke="#ffffff" stroke-miterlimit="50" stroke-width="1" transform="matrix(1,0,0,1,-35.893223304703334,-603)"></path><path id="SvgjsPath1015" d="M37.52 632.03C37.220000000000006 632.03 36.970000000000006 631.78 36.970000000000006 631.48L36.970000000000006 604.52C36.970000000000006 604.22 37.220000000000006 603.97 37.52 603.97L52.07000000000001 603.97L52.07000000000001 608.15C52.07000000000001 608.99 52.75000000000001 609.67 53.59000000000001 609.67L57.77000000000001 609.67L57.77000000000001 631.4799999999999C57.77000000000001 631.7799999999999 57.52000000000001 632.0299999999999 57.22000000000001 632.0299999999999ZM53.04 604.66L57.08 608.6999999999999L53.589999999999996 608.6999999999999C53.29 608.6999999999999 53.04 608.4499999999999 53.04 608.15ZM52.9 603.14C52.809999999999995 603.05 52.68 603 52.559999999999995 603L37.519999999999996 603C36.67999999999999 603 35.99999999999999 603.68 35.99999999999999 604.52L35.99999999999999 631.48C35.99999999999999 632.32 36.67999999999999 633 37.519999999999996 633L57.22 633C58.06 633 58.74 632.32 58.74 631.48L58.74 609.19C58.74 609.0600000000001 58.690000000000005 608.9300000000001 58.6 608.84Z " fill="#ffffff" fill-opacity="1" transform="matrix(1,0,0,1,-35.893223304703334,-603)"></path><path id="SvgjsPath1016" d="M37.52 632.03C37.220000000000006 632.03 36.970000000000006 631.78 36.970000000000006 631.48L36.970000000000006 604.52C36.970000000000006 604.22 37.220000000000006 603.97 37.52 603.97L52.07000000000001 603.97L52.07000000000001 608.15C52.07000000000001 608.99 52.75000000000001 609.67 53.59000000000001 609.67L57.77000000000001 609.67L57.77000000000001 631.4799999999999C57.77000000000001 631.7799999999999 57.52000000000001 632.0299999999999 57.22000000000001 632.0299999999999ZM53.04 604.66L57.08 608.6999999999999L53.589999999999996 608.6999999999999C53.29 608.6999999999999 53.04 608.4499999999999 53.04 608.15ZM52.9 603.14C52.809999999999995 603.05 52.68 603 52.559999999999995 603L37.519999999999996 603C36.67999999999999 603 35.99999999999999 603.68 35.99999999999999 604.52L35.99999999999999 631.48C35.99999999999999 632.32 36.67999999999999 633 37.519999999999996 633L57.22 633C58.06 633 58.74 632.32 58.74 631.48L58.74 609.19C58.74 609.0600000000001 58.690000000000005 608.9300000000001 58.6 608.84Z " fill-opacity="0" fill="#ffffff" stroke-dasharray="0" stroke-linejoin="miter" stroke-linecap="butt" stroke-opacity="1" stroke="#ffffff" stroke-miterlimit="50" stroke-width="1" transform="matrix(1,0,0,1,-35.893223304703334,-603)"></path><path id="SvgjsPath1017" d="M47.97 623.25L47.97 611.49C47.97 611.22 47.75 611 47.49 611C47.22 611 47 611.22 47 611.49L47 623.25C47 623.52 47.22 623.74 47.49 623.74C47.75 623.74 47.97 623.52 47.97 623.25 " fill="#ffffff" fill-opacity="1" transform="matrix(1,0,0,1,-35.893223304703334,-603)"></path><path id="SvgjsPath1018" d="M47.97 623.25L47.97 611.49C47.97 611.22 47.75 611 47.49 611C47.22 611 47 611.22 47 611.49L47 623.25C47 623.52 47.22 623.74 47.49 623.74C47.75 623.74 47.97 623.52 47.97 623.25 " fill-opacity="0" fill="#ffffff" stroke-dasharray="0" stroke-linejoin="miter" stroke-linecap="butt" stroke-opacity="1" stroke="#ffffff" stroke-miterlimit="50" stroke-width="1" transform="matrix(1,0,0,1,-35.893223304703334,-603)"></path><path id="SvgjsPath1019" d="M46.88 626C46.39 626 46 626.39 46 626.88C46 627.36 46.39 627.75 46.88 627.75C47.36 627.75 47.75 627.36 47.75 626.88C47.75 626.39 47.36 626 46.88 626 " fill="#ffffff" fill-opacity="1" transform="matrix(1,0,0,1,-35.893223304703334,-603)"></path><path id="SvgjsPath1020" d="M46.88 626C46.39 626 46 626.39 46 626.88C46 627.36 46.39 627.75 46.88 627.75C47.36 627.75 47.75 627.36 47.75 626.88C47.75 626.39 47.36 626 46.88 626 " fill-opacity="0" fill="#ffffff" stroke-dasharray="0" stroke-linejoin="miter" stroke-linecap="butt" stroke-opacity="1" stroke="#ffffff" stroke-miterlimit="50" stroke-width="1" transform="matrix(1,0,0,1,-35.893223304703334,-603)"></path></svg>