<svg id="SvgjsSvg1011" xmlns="http://www.w3.org/2000/svg" version="1.1" xmlns:xlink="http://www.w3.org/1999/xlink" xmlns:svgjs="http://svgjs.com/svgjs" width="97" height="64"><defs id="SvgjsDefs1012"></defs><path id="SvgjsPath1013" d="M124.37 1096.86L127.59 1096.86C128.04 1096.86 128.41 1096.49 128.41 1096.05L128.41 1091.4199999999998C128.41 1091.2599999999998 128.35999999999999 1091.09 128.26 1090.9499999999998L120.32 1079.9299999999998C120.16 1079.7199999999998 119.91 1079.59 119.64999999999999 1079.59L116.14999999999999 1079.59L116.14999999999999 1078.52C116.14999999999999 1077.04 114.92999999999999 1075.84 113.38999999999999 1075.84C111.88999999999999 1075.84 110.65999999999998 1077.04 110.65999999999998 1078.52L110.65999999999998 1079.59L95.76999999999998 1079.59C95.31999999999998 1079.59 94.94999999999999 1079.9599999999998 94.94999999999999 1080.3999999999999L94.94999999999999 1096.05C94.94999999999999 1096.49 95.32 1096.86 95.76999999999998 1096.86L99.03999999999998 1096.86C99.18999999999998 1097.7199999999998 99.58999999999997 1098.51 100.14999999999998 1099.1499999999999L87.81999999999998 1099.1499999999999C87.36999999999998 1099.1499999999999 86.99999999999999 1099.5099999999998 86.99999999999999 1099.9599999999998C86.99999999999999 1100.3999999999999 87.36999999999999 1100.7699999999998 87.81999999999998 1100.7699999999998L127.58999999999997 1100.7699999999998C128.03999999999996 1100.7699999999998 128.40999999999997 1100.3999999999999 128.40999999999997 1099.9599999999998C128.40999999999997 1099.5099999999998 128.03999999999996 1099.1499999999999 127.58999999999997 1099.1499999999999L123.24999999999997 1099.1499999999999C123.81999999999996 1098.5099999999998 124.21999999999997 1097.7199999999998 124.36999999999998 1096.86ZM124.37 1095.24C123.98 1093.02 122.01 1091.33 119.65 1091.33C117.28 1091.33 115.31 1093.02 114.92 1095.24L108.48 1095.24C108.09 1093.02 106.12 1091.33 103.76 1091.33C101.4 1091.33 99.43 1093.02 99.04 1095.24L96.59 1095.24L96.59 1081.21L119.22 1081.21L126.77 1091.68L126.77 1095.24ZM118.12 1083.44C117.97 1083.22 117.72 1083.1000000000001 117.45 1083.1000000000001L112.88 1083.1000000000001C112.42999999999999 1083.1000000000001 112.06 1083.46 112.06 1083.91L112.06 1088.22C112.06 1088.67 112.43 1089.03 112.88 1089.03L120.56 1089.03C120.87 1089.03 121.15 1088.86 121.29 1088.6C121.43 1088.33 121.41000000000001 1088 121.23 1087.76ZM106.91 1096.05C106.91 1097.76 105.5 1099.1499999999999 103.75999999999999 1099.1499999999999C102.02999999999999 1099.1499999999999 100.60999999999999 1097.7599999999998 100.60999999999999 1096.05C100.60999999999999 1094.34 102.02999999999999 1092.94 103.75999999999999 1092.94C105.49999999999999 1092.94 106.91 1094.3400000000001 106.91 1096.05ZM122.8 1096.05C122.8 1097.76 121.38 1099.1499999999999 119.64999999999999 1099.1499999999999C117.91 1099.1499999999999 116.49999999999999 1097.7599999999998 116.49999999999999 1096.05C116.49999999999999 1094.34 117.90999999999998 1092.94 119.64999999999999 1092.94C121.38 1092.94 122.8 1094.3400000000001 122.8 1096.05ZM104.78 1085.21L104.78 1083.81C104.78 1083.36 104.42 1083 103.96000000000001 1083C103.51 1083 103.14000000000001 1083.36 103.14000000000001 1083.81L103.14000000000001 1085.21L101.72000000000001 1085.21C101.27000000000001 1085.21 100.90000000000002 1085.57 100.90000000000002 1086.01C100.90000000000002 1086.46 101.27000000000002 1086.82 101.72000000000001 1086.82L103.14000000000001 1086.82L103.14000000000001 1088.22C103.14000000000001 1088.67 103.51000000000002 1089.03 103.96000000000001 1089.03C104.42 1089.03 104.78 1088.67 104.78 1088.22L104.78 1086.82L106.21000000000001 1086.82C106.66000000000001 1086.82 107.03 1086.46 107.03 1086.01C107.03 1085.57 106.66 1085.21 106.21000000000001 1085.21ZM107.37 1099.15C107.94 1098.51 108.33 1097.72 108.48 1096.8600000000001L114.92 1096.8600000000001C115.08 1097.72 115.47 1098.5100000000002 116.04 1099.15ZM113.7 1087.42L113.7 1084.72L117.03 1084.72L118.97 1087.42ZM109.51 1075.81C109.67 1075.97 109.88000000000001 1076.05 110.09 1076.05C110.3 1076.05 110.51 1075.97 110.67 1075.81C110.99 1075.49 110.99 1074.98 110.67 1074.6599999999999L109.23 1073.2499999999998C108.91000000000001 1072.9299999999998 108.39 1072.9299999999998 108.07000000000001 1073.2499999999998C107.75000000000001 1073.5599999999997 107.75000000000001 1074.0699999999997 108.07000000000001 1074.3899999999999ZM114.23 1073.82L114.23 1071.81C114.23 1071.36 113.86 1071 113.41000000000001 1071C112.95000000000002 1071 112.59000000000002 1071.36 112.59000000000002 1071.81L112.59000000000002 1073.82C112.59000000000002 1074.26 112.95000000000002 1074.6299999999999 113.41000000000001 1074.6299999999999C113.86000000000001 1074.6299999999999 114.23 1074.26 114.23 1073.82ZM112.31 1079.59L112.31 1078.52C112.31 1077.93 112.79 1077.46 113.39 1077.46L113.42 1077.46C114.02 1077.46 114.51 1077.93 114.51 1078.52L114.51 1079.59ZM102.85 1096.05C102.85 1096.54 103.25999999999999 1096.94 103.75999999999999 1096.94C104.25999999999999 1096.94 104.66999999999999 1096.54 104.66999999999999 1096.05C104.66999999999999 1095.55 104.25999999999999 1095.1499999999999 103.75999999999999 1095.1499999999999C103.25999999999999 1095.1499999999999 102.85 1095.55 102.85 1096.05ZM118.74 1096.05C118.74 1096.54 119.14 1096.94 119.64999999999999 1096.94C120.14999999999999 1096.94 120.55 1096.54 120.55 1096.05C120.55 1095.55 120.14999999999999 1095.1499999999999 119.64999999999999 1095.1499999999999C119.13999999999999 1095.1499999999999 118.74 1095.55 118.74 1096.05ZM115.95 1074.66L117.39 1073.25C117.71 1072.93 118.23 1072.93 118.55 1073.25C118.86999999999999 1073.56 118.86999999999999 1074.07 118.55 1074.39L117.11 1075.8100000000002C116.95 1075.9700000000003 116.74 1076.0500000000002 116.53 1076.0500000000002C116.32000000000001 1076.0500000000002 116.11 1075.9700000000003 115.95 1075.8100000000002C115.63000000000001 1075.4900000000002 115.63000000000001 1074.9800000000002 115.95 1074.66Z " fill="#77bc1f" fill-opacity="1" transform="matrix(1,0,0,1,-32,-1038)"></path><path id="SvgjsPath1014" d="M124.37 1096.86L127.59 1096.86C128.04 1096.86 128.41 1096.49 128.41 1096.05L128.41 1091.4199999999998C128.41 1091.2599999999998 128.35999999999999 1091.09 128.26 1090.9499999999998L120.32 1079.9299999999998C120.16 1079.7199999999998 119.91 1079.59 119.64999999999999 1079.59L116.14999999999999 1079.59L116.14999999999999 1078.52C116.14999999999999 1077.04 114.92999999999999 1075.84 113.38999999999999 1075.84C111.88999999999999 1075.84 110.65999999999998 1077.04 110.65999999999998 1078.52L110.65999999999998 1079.59L95.76999999999998 1079.59C95.31999999999998 1079.59 94.94999999999999 1079.9599999999998 94.94999999999999 1080.3999999999999L94.94999999999999 1096.05C94.94999999999999 1096.49 95.32 1096.86 95.76999999999998 1096.86L99.03999999999998 1096.86C99.18999999999998 1097.7199999999998 99.58999999999997 1098.51 100.14999999999998 1099.1499999999999L87.81999999999998 1099.1499999999999C87.36999999999998 1099.1499999999999 86.99999999999999 1099.5099999999998 86.99999999999999 1099.9599999999998C86.99999999999999 1100.3999999999999 87.36999999999999 1100.7699999999998 87.81999999999998 1100.7699999999998L127.58999999999997 1100.7699999999998C128.03999999999996 1100.7699999999998 128.40999999999997 1100.3999999999999 128.40999999999997 1099.9599999999998C128.40999999999997 1099.5099999999998 128.03999999999996 1099.1499999999999 127.58999999999997 1099.1499999999999L123.24999999999997 1099.1499999999999C123.81999999999996 1098.5099999999998 124.21999999999997 1097.7199999999998 124.36999999999998 1096.86ZM124.37 1095.24C123.98 1093.02 122.01 1091.33 119.65 1091.33C117.28 1091.33 115.31 1093.02 114.92 1095.24L108.48 1095.24C108.09 1093.02 106.12 1091.33 103.76 1091.33C101.4 1091.33 99.43 1093.02 99.04 1095.24L96.59 1095.24L96.59 1081.21L119.22 1081.21L126.77 1091.68L126.77 1095.24ZM118.12 1083.44C117.97 1083.22 117.72 1083.1000000000001 117.45 1083.1000000000001L112.88 1083.1000000000001C112.42999999999999 1083.1000000000001 112.06 1083.46 112.06 1083.91L112.06 1088.22C112.06 1088.67 112.43 1089.03 112.88 1089.03L120.56 1089.03C120.87 1089.03 121.15 1088.86 121.29 1088.6C121.43 1088.33 121.41000000000001 1088 121.23 1087.76ZM106.91 1096.05C106.91 1097.76 105.5 1099.1499999999999 103.75999999999999 1099.1499999999999C102.02999999999999 1099.1499999999999 100.60999999999999 1097.7599999999998 100.60999999999999 1096.05C100.60999999999999 1094.34 102.02999999999999 1092.94 103.75999999999999 1092.94C105.49999999999999 1092.94 106.91 1094.3400000000001 106.91 1096.05ZM122.8 1096.05C122.8 1097.76 121.38 1099.1499999999999 119.64999999999999 1099.1499999999999C117.91 1099.1499999999999 116.49999999999999 1097.7599999999998 116.49999999999999 1096.05C116.49999999999999 1094.34 117.90999999999998 1092.94 119.64999999999999 1092.94C121.38 1092.94 122.8 1094.3400000000001 122.8 1096.05ZM104.78 1085.21L104.78 1083.81C104.78 1083.36 104.42 1083 103.96000000000001 1083C103.51 1083 103.14000000000001 1083.36 103.14000000000001 1083.81L103.14000000000001 1085.21L101.72000000000001 1085.21C101.27000000000001 1085.21 100.90000000000002 1085.57 100.90000000000002 1086.01C100.90000000000002 1086.46 101.27000000000002 1086.82 101.72000000000001 1086.82L103.14000000000001 1086.82L103.14000000000001 1088.22C103.14000000000001 1088.67 103.51000000000002 1089.03 103.96000000000001 1089.03C104.42 1089.03 104.78 1088.67 104.78 1088.22L104.78 1086.82L106.21000000000001 1086.82C106.66000000000001 1086.82 107.03 1086.46 107.03 1086.01C107.03 1085.57 106.66 1085.21 106.21000000000001 1085.21ZM107.37 1099.15C107.94 1098.51 108.33 1097.72 108.48 1096.8600000000001L114.92 1096.8600000000001C115.08 1097.72 115.47 1098.5100000000002 116.04 1099.15ZM113.7 1087.42L113.7 1084.72L117.03 1084.72L118.97 1087.42ZM109.51 1075.81C109.67 1075.97 109.88000000000001 1076.05 110.09 1076.05C110.3 1076.05 110.51 1075.97 110.67 1075.81C110.99 1075.49 110.99 1074.98 110.67 1074.6599999999999L109.23 1073.2499999999998C108.91000000000001 1072.9299999999998 108.39 1072.9299999999998 108.07000000000001 1073.2499999999998C107.75000000000001 1073.5599999999997 107.75000000000001 1074.0699999999997 108.07000000000001 1074.3899999999999ZM114.23 1073.82L114.23 1071.81C114.23 1071.36 113.86 1071 113.41000000000001 1071C112.95000000000002 1071 112.59000000000002 1071.36 112.59000000000002 1071.81L112.59000000000002 1073.82C112.59000000000002 1074.26 112.95000000000002 1074.6299999999999 113.41000000000001 1074.6299999999999C113.86000000000001 1074.6299999999999 114.23 1074.26 114.23 1073.82ZM112.31 1079.59L112.31 1078.52C112.31 1077.93 112.79 1077.46 113.39 1077.46L113.42 1077.46C114.02 1077.46 114.51 1077.93 114.51 1078.52L114.51 1079.59ZM102.85 1096.05C102.85 1096.54 103.25999999999999 1096.94 103.75999999999999 1096.94C104.25999999999999 1096.94 104.66999999999999 1096.54 104.66999999999999 1096.05C104.66999999999999 1095.55 104.25999999999999 1095.1499999999999 103.75999999999999 1095.1499999999999C103.25999999999999 1095.1499999999999 102.85 1095.55 102.85 1096.05ZM118.74 1096.05C118.74 1096.54 119.14 1096.94 119.64999999999999 1096.94C120.14999999999999 1096.94 120.55 1096.54 120.55 1096.05C120.55 1095.55 120.14999999999999 1095.1499999999999 119.64999999999999 1095.1499999999999C119.13999999999999 1095.1499999999999 118.74 1095.55 118.74 1096.05ZM115.95 1074.66L117.39 1073.25C117.71 1072.93 118.23 1072.93 118.55 1073.25C118.86999999999999 1073.56 118.86999999999999 1074.07 118.55 1074.39L117.11 1075.8100000000002C116.95 1075.9700000000003 116.74 1076.0500000000002 116.53 1076.0500000000002C116.32000000000001 1076.0500000000002 116.11 1075.9700000000003 115.95 1075.8100000000002C115.63000000000001 1075.4900000000002 115.63000000000001 1074.9800000000002 115.95 1074.66Z " fill="#77bc1f" fill-opacity="1" transform="matrix(1,0,0,1,-32,-1038)"></path><path id="SvgjsPath1015" d="M75.79 1099.19L48.02000000000001 1099.19L48.02000000000001 1052.77L75.79 1052.77ZM77.93 1064.37L89.68 1064.37L89.68 1099.1899999999998L77.93 1099.1899999999998ZM34.14 1064.37L45.89 1064.37L45.89 1099.1899999999998L34.14 1099.1899999999998ZM54.43 1046.44L69.38 1046.44L69.38 1050.66L54.42999999999999 1050.66ZM77.93 1062.26L77.93 1051.72C77.93 1051.13 77.45 1050.66 76.86000000000001 1050.66L71.52000000000001 1050.66L71.52000000000001 1045.38C71.52000000000001 1044.8000000000002 71.04 1044.3300000000002 70.45000000000002 1044.3300000000002L62.98000000000002 1044.3300000000002L62.98000000000002 1038.0000000000002L60.84000000000002 1038.0000000000002L60.84000000000002 1044.3300000000002L53.360000000000014 1044.3300000000002C52.77000000000001 1044.3300000000002 52.30000000000001 1044.8000000000002 52.30000000000001 1045.38L52.30000000000001 1050.66L46.95000000000001 1050.66C46.36000000000001 1050.66 45.89000000000001 1051.13 45.89000000000001 1051.71L45.89000000000001 1062.26L33.07000000000001 1062.26C32.480000000000004 1062.26 32.00000000000001 1062.74 32.00000000000001 1063.32L32.00000000000001 1100.24C32.00000000000001 1100.82 32.480000000000004 1101.3 33.07000000000001 1101.3L90.75 1101.3C91.34 1101.3 91.82 1100.82 91.82 1100.24L91.82 1063.32C91.82 1062.74 91.33999999999999 1062.26 90.75 1062.26Z " fill="#77bc1f" fill-opacity="1" transform="matrix(1,0,0,1,-32,-1038)"></path><path id="SvgjsPath1016" d="M52.14 1095.33L57.480000000000004 1095.33L57.480000000000004 1091.11L52.14 1091.11ZM58.55 1089C59.14 1089 59.61 1089.47 59.61 1090.06L59.61 1096.3799999999999C59.61 1096.9699999999998 59.14 1097.4399999999998 58.55 1097.4399999999998L51.06999999999999 1097.4399999999998C50.47999999999999 1097.4399999999998 49.99999999999999 1096.9699999999998 49.99999999999999 1096.3799999999999L49.99999999999999 1090.06C49.99999999999999 1089.47 50.47999999999999 1089 51.06999999999999 1089Z " fill="#77bc1f" fill-opacity="1" transform="matrix(1,0,0,1,-32,-1038)"></path><path id="SvgjsPath1017" d="M52.14 1084.33L57.480000000000004 1084.33L57.480000000000004 1080.11L52.14 1080.11ZM58.55 1078C59.14 1078 59.61 1078.47 59.61 1079.06L59.61 1085.3799999999999C59.61 1085.9699999999998 59.14 1086.4399999999998 58.55 1086.4399999999998L51.06999999999999 1086.4399999999998C50.47999999999999 1086.4399999999998 49.99999999999999 1085.9699999999998 49.99999999999999 1085.3799999999999L49.99999999999999 1079.06C49.99999999999999 1078.47 50.47999999999999 1078 51.06999999999999 1078Z " fill="#77bc1f" fill-opacity="1" transform="matrix(1,0,0,1,-32,-1038)"></path><path id="SvgjsPath1018" d="M52.14 1074.33L57.480000000000004 1074.33L57.480000000000004 1070.11L52.14 1070.11ZM58.55 1068C59.14 1068 59.61 1068.47 59.61 1069.06L59.61 1075.3799999999999C59.61 1075.9699999999998 59.14 1076.4399999999998 58.55 1076.4399999999998L51.06999999999999 1076.4399999999998C50.47999999999999 1076.4399999999998 49.99999999999999 1075.9699999999998 49.99999999999999 1075.3799999999999L49.99999999999999 1069.06C49.99999999999999 1068.47 50.47999999999999 1068 51.06999999999999 1068Z " fill="#77bc1f" fill-opacity="1" transform="matrix(1,0,0,1,-32,-1038)"></path><path id="SvgjsPath1019" d="M38.14 1074.27L41.34 1074.27L41.34 1071.11L38.14 1071.11ZM42.41 1069C43 1069 43.48 1069.47 43.48 1070.06L43.48 1075.33C43.48 1075.9099999999999 43 1076.3799999999999 42.41 1076.3799999999999L37.06999999999999 1076.3799999999999C36.47999999999999 1076.3799999999999 35.99999999999999 1075.9099999999999 35.99999999999999 1075.33L35.99999999999999 1070.06C35.99999999999999 1069.47 36.47999999999999 1069 37.06999999999999 1069Z " fill="#77bc1f" fill-opacity="1" transform="matrix(1,0,0,1,-32,-1038)"></path><path id="SvgjsPath1020" d="M82.14 1074.27L85.34 1074.27L85.34 1071.11L82.14 1071.11ZM86.41 1069C87 1069 87.47999999999999 1069.47 87.47999999999999 1070.06L87.47999999999999 1075.33C87.47999999999999 1075.9099999999999 86.99999999999999 1076.3799999999999 86.41 1076.3799999999999L81.07 1076.3799999999999C80.47999999999999 1076.3799999999999 80 1075.9099999999999 80 1075.33L80 1070.06C80 1069.47 80.48 1069 81.07 1069Z " fill="#77bc1f" fill-opacity="1" transform="matrix(1,0,0,1,-32,-1038)"></path><path id="SvgjsPath1021" d="M38.14 1083.28L41.34 1083.28L41.34 1080.11L38.14 1080.11ZM42.41 1078C43 1078 43.48 1078.47 43.48 1079.06L43.48 1084.33C43.48 1084.9099999999999 43 1085.3799999999999 42.41 1085.3799999999999L37.06999999999999 1085.3799999999999C36.47999999999999 1085.3799999999999 35.99999999999999 1084.9099999999999 35.99999999999999 1084.33L35.99999999999999 1079.06C35.99999999999999 1078.47 36.47999999999999 1078 37.06999999999999 1078Z " fill="#77bc1f" fill-opacity="1" transform="matrix(1,0,0,1,-32,-1038)"></path><path id="SvgjsPath1022" d="M82.14 1083.28L85.34 1083.28L85.34 1080.11L82.14 1080.11ZM86.41 1078C87 1078 87.47999999999999 1078.47 87.47999999999999 1079.06L87.47999999999999 1084.33C87.47999999999999 1084.9099999999999 86.99999999999999 1085.3799999999999 86.41 1085.3799999999999L81.07 1085.3799999999999C80.47999999999999 1085.3799999999999 80 1084.9099999999999 80 1084.33L80 1079.06C80 1078.47 80.48 1078 81.07 1078Z " fill="#77bc1f" fill-opacity="1" transform="matrix(1,0,0,1,-32,-1038)"></path><path id="SvgjsPath1023" d="M38.14 1093.27L41.34 1093.27L41.34 1090.11L38.14 1090.11ZM42.41 1088C43 1088 43.48 1088.47 43.48 1089.05L43.48 1094.33C43.48 1094.9099999999999 43 1095.3799999999999 42.41 1095.3799999999999L37.06999999999999 1095.3799999999999C36.47999999999999 1095.3799999999999 35.99999999999999 1094.9099999999999 35.99999999999999 1094.33L35.99999999999999 1089.05C35.99999999999999 1088.47 36.47999999999999 1088 37.06999999999999 1088Z " fill="#77bc1f" fill-opacity="1" transform="matrix(1,0,0,1,-32,-1038)"></path><path id="SvgjsPath1024" d="M82.14 1093.27L85.34 1093.27L85.34 1090.11L82.14 1090.11ZM86.41 1088C87 1088 87.47999999999999 1088.47 87.47999999999999 1089.05L87.47999999999999 1094.33C87.47999999999999 1094.9099999999999 86.99999999999999 1095.3799999999999 86.41 1095.3799999999999L81.07 1095.3799999999999C80.47999999999999 1095.3799999999999 80 1094.9099999999999 80 1094.33L80 1089.05C80 1088.47 80.48 1088 81.07 1088Z " fill="#77bc1f" fill-opacity="1" transform="matrix(1,0,0,1,-32,-1038)"></path><path id="SvgjsPath1025" d="M66.14 1095.33L71.48 1095.33L71.48 1091.11L66.14 1091.11ZM72.55 1089C73.14 1089 73.61 1089.47 73.61 1090.06L73.61 1096.3799999999999C73.61 1096.9699999999998 73.14 1097.4399999999998 72.55 1097.4399999999998L65.07 1097.4399999999998C64.47999999999999 1097.4399999999998 63.99999999999999 1096.9699999999998 63.99999999999999 1096.3799999999999L63.99999999999999 1090.06C63.99999999999999 1089.47 64.47999999999999 1089 65.07 1089Z " fill="#77bc1f" fill-opacity="1" transform="matrix(1,0,0,1,-32,-1038)"></path><path id="SvgjsPath1026" d="M66.14 1084.33L71.48 1084.33L71.48 1080.11L66.14 1080.11ZM72.55 1078C73.14 1078 73.61 1078.47 73.61 1079.06L73.61 1085.3799999999999C73.61 1085.9699999999998 73.14 1086.4399999999998 72.55 1086.4399999999998L65.07 1086.4399999999998C64.47999999999999 1086.4399999999998 63.99999999999999 1085.9699999999998 63.99999999999999 1085.3799999999999L63.99999999999999 1079.06C63.99999999999999 1078.47 64.47999999999999 1078 65.07 1078Z " fill="#77bc1f" fill-opacity="1" transform="matrix(1,0,0,1,-32,-1038)"></path><path id="SvgjsPath1027" d="M66.14 1074.33L71.48 1074.33L71.48 1070.11L66.14 1070.11ZM72.55 1068C73.14 1068 73.61 1068.47 73.61 1069.06L73.61 1075.3799999999999C73.61 1075.9699999999998 73.14 1076.4399999999998 72.55 1076.4399999999998L65.07 1076.4399999999998C64.47999999999999 1076.4399999999998 63.99999999999999 1075.9699999999998 63.99999999999999 1075.3799999999999L63.99999999999999 1069.06C63.99999999999999 1068.47 64.47999999999999 1068 65.07 1068Z " fill="#77bc1f" fill-opacity="1" transform="matrix(1,0,0,1,-32,-1038)"></path><path id="SvgjsPath1028" d="M63.41 1059.22L63.41 1055L61.269999999999996 1055L61.269999999999996 1059.22L57 1059.22L57 1061.33L61.269999999999996 1061.33L61.269999999999996 1065.55L63.41 1065.55L63.41 1061.33L67.67999999999999 1061.33L67.67999999999999 1059.22Z " fill="#77bc1f" fill-opacity="1" transform="matrix(1,0,0,1,-32,-1038)"></path><path id="SvgjsPath1029" d="M75.79 1099.19L48.02000000000001 1099.19L48.02000000000001 1052.77L75.79 1052.77ZM77.93 1064.37L89.68 1064.37L89.68 1099.1899999999998L77.93 1099.1899999999998ZM34.14 1064.37L45.89 1064.37L45.89 1099.1899999999998L34.14 1099.1899999999998ZM54.43 1046.44L69.38 1046.44L69.38 1050.66L54.42999999999999 1050.66ZM77.93 1062.26L77.93 1051.72C77.93 1051.13 77.45 1050.66 76.86000000000001 1050.66L71.52000000000001 1050.66L71.52000000000001 1045.38C71.52000000000001 1044.8000000000002 71.04 1044.3300000000002 70.45000000000002 1044.3300000000002L62.98000000000002 1044.3300000000002L62.98000000000002 1038.0000000000002L60.84000000000002 1038.0000000000002L60.84000000000002 1044.3300000000002L53.360000000000014 1044.3300000000002C52.77000000000001 1044.3300000000002 52.30000000000001 1044.8000000000002 52.30000000000001 1045.38L52.30000000000001 1050.66L46.95000000000001 1050.66C46.36000000000001 1050.66 45.89000000000001 1051.13 45.89000000000001 1051.71L45.89000000000001 1062.26L33.07000000000001 1062.26C32.480000000000004 1062.26 32.00000000000001 1062.74 32.00000000000001 1063.32L32.00000000000001 1100.24C32.00000000000001 1100.82 32.480000000000004 1101.3 33.07000000000001 1101.3L90.75 1101.3C91.34 1101.3 91.82 1100.82 91.82 1100.24L91.82 1063.32C91.82 1062.74 91.33999999999999 1062.26 90.75 1062.26Z " fill="#77bc1f" fill-opacity="1" transform="matrix(1,0,0,1,-32,-1038)"></path><path id="SvgjsPath1030" d="M52.14 1095.33L57.480000000000004 1095.33L57.480000000000004 1091.11L52.14 1091.11ZM58.55 1089C59.14 1089 59.61 1089.47 59.61 1090.06L59.61 1096.3799999999999C59.61 1096.9699999999998 59.14 1097.4399999999998 58.55 1097.4399999999998L51.06999999999999 1097.4399999999998C50.47999999999999 1097.4399999999998 49.99999999999999 1096.9699999999998 49.99999999999999 1096.3799999999999L49.99999999999999 1090.06C49.99999999999999 1089.47 50.47999999999999 1089 51.06999999999999 1089Z " fill="#77bc1f" fill-opacity="1" transform="matrix(1,0,0,1,-32,-1038)"></path><path id="SvgjsPath1031" d="M52.14 1084.33L57.480000000000004 1084.33L57.480000000000004 1080.11L52.14 1080.11ZM58.55 1078C59.14 1078 59.61 1078.47 59.61 1079.06L59.61 1085.3799999999999C59.61 1085.9699999999998 59.14 1086.4399999999998 58.55 1086.4399999999998L51.06999999999999 1086.4399999999998C50.47999999999999 1086.4399999999998 49.99999999999999 1085.9699999999998 49.99999999999999 1085.3799999999999L49.99999999999999 1079.06C49.99999999999999 1078.47 50.47999999999999 1078 51.06999999999999 1078Z " fill="#77bc1f" fill-opacity="1" transform="matrix(1,0,0,1,-32,-1038)"></path><path id="SvgjsPath1032" d="M52.14 1074.33L57.480000000000004 1074.33L57.480000000000004 1070.11L52.14 1070.11ZM58.55 1068C59.14 1068 59.61 1068.47 59.61 1069.06L59.61 1075.3799999999999C59.61 1075.9699999999998 59.14 1076.4399999999998 58.55 1076.4399999999998L51.06999999999999 1076.4399999999998C50.47999999999999 1076.4399999999998 49.99999999999999 1075.9699999999998 49.99999999999999 1075.3799999999999L49.99999999999999 1069.06C49.99999999999999 1068.47 50.47999999999999 1068 51.06999999999999 1068Z " fill="#77bc1f" fill-opacity="1" transform="matrix(1,0,0,1,-32,-1038)"></path><path id="SvgjsPath1033" d="M38.14 1074.27L41.34 1074.27L41.34 1071.11L38.14 1071.11ZM42.41 1069C43 1069 43.48 1069.47 43.48 1070.06L43.48 1075.33C43.48 1075.9099999999999 43 1076.3799999999999 42.41 1076.3799999999999L37.06999999999999 1076.3799999999999C36.47999999999999 1076.3799999999999 35.99999999999999 1075.9099999999999 35.99999999999999 1075.33L35.99999999999999 1070.06C35.99999999999999 1069.47 36.47999999999999 1069 37.06999999999999 1069Z " fill="#77bc1f" fill-opacity="1" transform="matrix(1,0,0,1,-32,-1038)"></path><path id="SvgjsPath1034" d="M82.14 1074.27L85.34 1074.27L85.34 1071.11L82.14 1071.11ZM86.41 1069C87 1069 87.47999999999999 1069.47 87.47999999999999 1070.06L87.47999999999999 1075.33C87.47999999999999 1075.9099999999999 86.99999999999999 1076.3799999999999 86.41 1076.3799999999999L81.07 1076.3799999999999C80.47999999999999 1076.3799999999999 80 1075.9099999999999 80 1075.33L80 1070.06C80 1069.47 80.48 1069 81.07 1069Z " fill="#77bc1f" fill-opacity="1" transform="matrix(1,0,0,1,-32,-1038)"></path><path id="SvgjsPath1035" d="M38.14 1083.28L41.34 1083.28L41.34 1080.11L38.14 1080.11ZM42.41 1078C43 1078 43.48 1078.47 43.48 1079.06L43.48 1084.33C43.48 1084.9099999999999 43 1085.3799999999999 42.41 1085.3799999999999L37.06999999999999 1085.3799999999999C36.47999999999999 1085.3799999999999 35.99999999999999 1084.9099999999999 35.99999999999999 1084.33L35.99999999999999 1079.06C35.99999999999999 1078.47 36.47999999999999 1078 37.06999999999999 1078Z " fill="#77bc1f" fill-opacity="1" transform="matrix(1,0,0,1,-32,-1038)"></path><path id="SvgjsPath1036" d="M82.14 1083.28L85.34 1083.28L85.34 1080.11L82.14 1080.11ZM86.41 1078C87 1078 87.47999999999999 1078.47 87.47999999999999 1079.06L87.47999999999999 1084.33C87.47999999999999 1084.9099999999999 86.99999999999999 1085.3799999999999 86.41 1085.3799999999999L81.07 1085.3799999999999C80.47999999999999 1085.3799999999999 80 1084.9099999999999 80 1084.33L80 1079.06C80 1078.47 80.48 1078 81.07 1078Z " fill="#77bc1f" fill-opacity="1" transform="matrix(1,0,0,1,-32,-1038)"></path><path id="SvgjsPath1037" d="M38.14 1093.27L41.34 1093.27L41.34 1090.11L38.14 1090.11ZM42.41 1088C43 1088 43.48 1088.47 43.48 1089.05L43.48 1094.33C43.48 1094.9099999999999 43 1095.3799999999999 42.41 1095.3799999999999L37.06999999999999 1095.3799999999999C36.47999999999999 1095.3799999999999 35.99999999999999 1094.9099999999999 35.99999999999999 1094.33L35.99999999999999 1089.05C35.99999999999999 1088.47 36.47999999999999 1088 37.06999999999999 1088Z " fill="#77bc1f" fill-opacity="1" transform="matrix(1,0,0,1,-32,-1038)"></path><path id="SvgjsPath1038" d="M82.14 1093.27L85.34 1093.27L85.34 1090.11L82.14 1090.11ZM86.41 1088C87 1088 87.47999999999999 1088.47 87.47999999999999 1089.05L87.47999999999999 1094.33C87.47999999999999 1094.9099999999999 86.99999999999999 1095.3799999999999 86.41 1095.3799999999999L81.07 1095.3799999999999C80.47999999999999 1095.3799999999999 80 1094.9099999999999 80 1094.33L80 1089.05C80 1088.47 80.48 1088 81.07 1088Z " fill="#77bc1f" fill-opacity="1" transform="matrix(1,0,0,1,-32,-1038)"></path><path id="SvgjsPath1039" d="M66.14 1095.33L71.48 1095.33L71.48 1091.11L66.14 1091.11ZM72.55 1089C73.14 1089 73.61 1089.47 73.61 1090.06L73.61 1096.3799999999999C73.61 1096.9699999999998 73.14 1097.4399999999998 72.55 1097.4399999999998L65.07 1097.4399999999998C64.47999999999999 1097.4399999999998 63.99999999999999 1096.9699999999998 63.99999999999999 1096.3799999999999L63.99999999999999 1090.06C63.99999999999999 1089.47 64.47999999999999 1089 65.07 1089Z " fill="#77bc1f" fill-opacity="1" transform="matrix(1,0,0,1,-32,-1038)"></path><path id="SvgjsPath1040" d="M66.14 1084.33L71.48 1084.33L71.48 1080.11L66.14 1080.11ZM72.55 1078C73.14 1078 73.61 1078.47 73.61 1079.06L73.61 1085.3799999999999C73.61 1085.9699999999998 73.14 1086.4399999999998 72.55 1086.4399999999998L65.07 1086.4399999999998C64.47999999999999 1086.4399999999998 63.99999999999999 1085.9699999999998 63.99999999999999 1085.3799999999999L63.99999999999999 1079.06C63.99999999999999 1078.47 64.47999999999999 1078 65.07 1078Z " fill="#77bc1f" fill-opacity="1" transform="matrix(1,0,0,1,-32,-1038)"></path><path id="SvgjsPath1041" d="M66.14 1074.33L71.48 1074.33L71.48 1070.11L66.14 1070.11ZM72.55 1068C73.14 1068 73.61 1068.47 73.61 1069.06L73.61 1075.3799999999999C73.61 1075.9699999999998 73.14 1076.4399999999998 72.55 1076.4399999999998L65.07 1076.4399999999998C64.47999999999999 1076.4399999999998 63.99999999999999 1075.9699999999998 63.99999999999999 1075.3799999999999L63.99999999999999 1069.06C63.99999999999999 1068.47 64.47999999999999 1068 65.07 1068Z " fill="#77bc1f" fill-opacity="1" transform="matrix(1,0,0,1,-32,-1038)"></path><path id="SvgjsPath1042" d="M63.41 1059.22L63.41 1055L61.269999999999996 1055L61.269999999999996 1059.22L57 1059.22L57 1061.33L61.269999999999996 1061.33L61.269999999999996 1065.55L63.41 1065.55L63.41 1061.33L67.67999999999999 1061.33L67.67999999999999 1059.22Z " fill="#77bc1f" fill-opacity="1" transform="matrix(1,0,0,1,-32,-1038)"></path></svg>