<svg id="SvgjsSvg1000" xmlns="http://www.w3.org/2000/svg" version="1.1" xmlns:xlink="http://www.w3.org/1999/xlink" xmlns:svgjs="http://svgjs.com/svgjs" width="51" height="50"><defs id="SvgjsDefs1001"></defs><path id="SvgjsPath1007" d="M65.94 496.7C65.82 493.84 65.45 489.68 64.32 486.2C62.989999999999995 482.07 60.81999999999999 479.28999999999996 59.3 477.71C69.52 478.66999999999996 77.86 486.15999999999997 80.00999999999999 495.92999999999995C78.38 494.04999999999995 75.96999999999998 492.86999999999995 73.25999999999999 492.86999999999995C70.22999999999999 492.86999999999995 67.55 494.38999999999993 65.94 496.69999999999993ZM34.16 495.93C36.309999999999995 486.16 44.64 478.67 54.86 477.71000000000004C53.339999999999996 479.29 51.17 482.07000000000005 49.84 486.20000000000005C48.71 489.68000000000006 48.34 493.84000000000003 48.220000000000006 496.70000000000005C46.61000000000001 494.39000000000004 43.93000000000001 492.87000000000006 40.900000000000006 492.87000000000006C38.2 492.87000000000006 35.790000000000006 494.05000000000007 34.160000000000004 495.93000000000006ZM49.85 496.57C49.980000000000004 493.8 50.34 489.89 51.38 486.69C52.980000000000004 481.73 55.940000000000005 478.82 57.080000000000005 477.84C58.220000000000006 478.82 61.18000000000001 481.72999999999996 62.78000000000001 486.69C63.82000000000001 489.88 64.18 493.8 64.31 496.57C62.690000000000005 494.33 60.06 492.87 57.08 492.87C54.11 492.87 51.47 494.33 49.849999999999994 496.57ZM32 500.91C32 501.03000000000003 32 501.15000000000003 32.01 501.27000000000004L32.01 501.46000000000004L33.629999999999995 501.47C33.76 497.55 36.949999999999996 494.48 40.89999999999999 494.48C44.90999999999999 494.48 48.17999999999999 497.72 48.17999999999999 501.71000000000004L49.79999999999999 501.71000000000004C49.79999999999999 497.99 52.639999999999986 494.93000000000006 56.26999999999999 494.53000000000003L56.26999999999999 519.39L57.889999999999986 519.39L57.889999999999986 494.53C61.52999999999999 494.92999999999995 64.35999999999999 497.98999999999995 64.35999999999999 501.71L65.97999999999999 501.71C65.97999999999999 497.71999999999997 69.24999999999999 494.47999999999996 73.25999999999999 494.47999999999996C77.21 494.47999999999996 80.39999999999999 497.54999999999995 80.52999999999999 501.46999999999997L82.14999999999999 501.46L82.16 501.27C82.16 501.15 82.16 501.03 82.16 500.90999999999997C82.16 487.16999999999996 70.91 475.99999999999994 57.08 475.99999999999994C43.25 475.99999999999994 32 487.16999999999996 32 500.90999999999997Z " fill="#77bc1f" fill-opacity="1" transform="matrix(1,0,0,1,-32,-476)"></path><path id="SvgjsPath1008" d="M56.71 519.8C56.71 522.02 54.89 523.8199999999999 52.660000000000004 523.8199999999999C50.43000000000001 523.8199999999999 48.620000000000005 522.02 48.620000000000005 519.8L48.620000000000005 519L47.00000000000001 519L47.00000000000001 519.8C47.00000000000001 522.9 49.540000000000006 525.43 52.66000000000001 525.43C55.79000000000001 525.43 58.33000000000001 522.9 58.33000000000001 519.8L58.33000000000001 519L56.710000000000015 519Z " fill="#77bc1f" fill-opacity="1" transform="matrix(1,0,0,1,-32,-476)"></path><path id="SvgjsPath1009" d="M65.94 496.7C65.82 493.84 65.45 489.68 64.32 486.2C62.989999999999995 482.07 60.81999999999999 479.28999999999996 59.3 477.71C69.52 478.66999999999996 77.86 486.15999999999997 80.00999999999999 495.92999999999995C78.38 494.04999999999995 75.96999999999998 492.86999999999995 73.25999999999999 492.86999999999995C70.22999999999999 492.86999999999995 67.55 494.38999999999993 65.94 496.69999999999993ZM34.16 495.93C36.309999999999995 486.16 44.64 478.67 54.86 477.71000000000004C53.339999999999996 479.29 51.17 482.07000000000005 49.84 486.20000000000005C48.71 489.68000000000006 48.34 493.84000000000003 48.220000000000006 496.70000000000005C46.61000000000001 494.39000000000004 43.93000000000001 492.87000000000006 40.900000000000006 492.87000000000006C38.2 492.87000000000006 35.790000000000006 494.05000000000007 34.160000000000004 495.93000000000006ZM49.85 496.57C49.980000000000004 493.8 50.34 489.89 51.38 486.69C52.980000000000004 481.73 55.940000000000005 478.82 57.080000000000005 477.84C58.220000000000006 478.82 61.18000000000001 481.72999999999996 62.78000000000001 486.69C63.82000000000001 489.88 64.18 493.8 64.31 496.57C62.690000000000005 494.33 60.06 492.87 57.08 492.87C54.11 492.87 51.47 494.33 49.849999999999994 496.57ZM32 500.91C32 501.03000000000003 32 501.15000000000003 32.01 501.27000000000004L32.01 501.46000000000004L33.629999999999995 501.47C33.76 497.55 36.949999999999996 494.48 40.89999999999999 494.48C44.90999999999999 494.48 48.17999999999999 497.72 48.17999999999999 501.71000000000004L49.79999999999999 501.71000000000004C49.79999999999999 497.99 52.639999999999986 494.93000000000006 56.26999999999999 494.53000000000003L56.26999999999999 519.39L57.889999999999986 519.39L57.889999999999986 494.53C61.52999999999999 494.92999999999995 64.35999999999999 497.98999999999995 64.35999999999999 501.71L65.97999999999999 501.71C65.97999999999999 497.71999999999997 69.24999999999999 494.47999999999996 73.25999999999999 494.47999999999996C77.21 494.47999999999996 80.39999999999999 497.54999999999995 80.52999999999999 501.46999999999997L82.14999999999999 501.46L82.16 501.27C82.16 501.15 82.16 501.03 82.16 500.90999999999997C82.16 487.16999999999996 70.91 475.99999999999994 57.08 475.99999999999994C43.25 475.99999999999994 32 487.16999999999996 32 500.90999999999997Z " fill="#77bc1f" fill-opacity="1" transform="matrix(1,0,0,1,-32,-476)"></path><path id="SvgjsPath1010" d="M56.71 519.8C56.71 522.02 54.89 523.8199999999999 52.660000000000004 523.8199999999999C50.43000000000001 523.8199999999999 48.620000000000005 522.02 48.620000000000005 519.8L48.620000000000005 519L47.00000000000001 519L47.00000000000001 519.8C47.00000000000001 522.9 49.540000000000006 525.43 52.66000000000001 525.43C55.79000000000001 525.43 58.33000000000001 522.9 58.33000000000001 519.8L58.33000000000001 519L56.710000000000015 519Z " fill="#77bc1f" fill-opacity="1" transform="matrix(1,0,0,1,-32,-476)"></path></svg>