<svg id="SvgjsSvg1038" xmlns="http://www.w3.org/2000/svg" version="1.1" xmlns:xlink="http://www.w3.org/1999/xlink" xmlns:svgjs="http://svgjs.com/svgjs" width="53" height="23"><defs id="SvgjsDefs1039"></defs><path id="SvgjsPath1040" d="M111.65 1426.16C111.65 1424.77 112.79 1423.63 114.2 1423.63C115.61 1423.63 116.76 1424.7700000000002 116.76 1426.16C116.76 1427.5600000000002 115.61 1428.69 114.2 1428.69C112.79 1428.69 111.65 1427.56 111.65 1426.16ZM110 1426.16C110 1428.46 111.89 1430.3200000000002 114.2 1430.3200000000002C116.52 1430.3200000000002 118.4 1428.4600000000003 118.4 1426.16C118.4 1423.8700000000001 116.52000000000001 1422 114.2 1422C111.89 1422 110 1423.87 110 1426.16Z " fill="#ffffff" fill-opacity="1" transform="matrix(1,0,0,1,-87,-1411)"></path><path id="SvgjsPath1041" d="M111.65 1426.16C111.65 1424.77 112.79 1423.63 114.2 1423.63C115.61 1423.63 116.76 1424.7700000000002 116.76 1426.16C116.76 1427.5600000000002 115.61 1428.69 114.2 1428.69C112.79 1428.69 111.65 1427.56 111.65 1426.16ZM110 1426.16C110 1428.46 111.89 1430.3200000000002 114.2 1430.3200000000002C116.52 1430.3200000000002 118.4 1428.4600000000003 118.4 1426.16C118.4 1423.8700000000001 116.52000000000001 1422 114.2 1422C111.89 1422 110 1423.87 110 1426.16Z " fill="#ffffff" fill-opacity="1" transform="matrix(1,0,0,1,-87,-1411)"></path><path id="SvgjsPath1042" d="M118.38 1420.57C117.1 1419.56 115.49 1419 113.85 1419C112.19999999999999 1419 110.58999999999999 1419.56 109.30999999999999 1420.57C108.94999999999999 1420.84 108.89999999999999 1421.36 109.17999999999999 1421.71C109.46 1422.06 109.97999999999999 1422.1200000000001 110.33999999999999 1421.8400000000001C111.33999999999999 1421.0500000000002 112.55999999999999 1420.63 113.85 1420.63C115.14 1420.63 116.35 1421.0500000000002 117.36 1421.8400000000001C117.51 1421.96 117.69 1422.0200000000002 117.87 1422.0200000000002C118.11 1422.0200000000002 118.35000000000001 1421.9100000000003 118.52000000000001 1421.7100000000003C118.80000000000001 1421.3600000000004 118.74000000000001 1420.8400000000004 118.38000000000001 1420.5700000000002 " fill="#ffffff" fill-opacity="1" transform="matrix(1,0,0,1,-87,-1411)"></path><path id="SvgjsPath1043" d="M118.38 1420.57C117.1 1419.56 115.49 1419 113.85 1419C112.19999999999999 1419 110.58999999999999 1419.56 109.30999999999999 1420.57C108.94999999999999 1420.84 108.89999999999999 1421.36 109.17999999999999 1421.71C109.46 1422.06 109.97999999999999 1422.1200000000001 110.33999999999999 1421.8400000000001C111.33999999999999 1421.0500000000002 112.55999999999999 1420.63 113.85 1420.63C115.14 1420.63 116.35 1421.0500000000002 117.36 1421.8400000000001C117.51 1421.96 117.69 1422.0200000000002 117.87 1422.0200000000002C118.11 1422.0200000000002 118.35000000000001 1421.9100000000003 118.52000000000001 1421.7100000000003C118.80000000000001 1421.3600000000004 118.74000000000001 1420.8400000000004 118.38000000000001 1420.5700000000002 " fill="#ffffff" fill-opacity="1" transform="matrix(1,0,0,1,-87,-1411)"></path><path id="SvgjsPath1044" d="M113.97 1432.29C118.12 1432.29 121.49 1428.94 121.49 1424.84C121.49 1420.73 118.11 1417.3899999999999 113.97 1417.3899999999999C109.82 1417.3899999999999 106.45 1420.7299999999998 106.45 1424.84C106.45 1428.9399999999998 109.82000000000001 1432.29 113.97 1432.29ZM103.42 1428.66C103.42 1427 102.06 1425.65 100.38 1425.65C98.71 1425.65 97.35 1427 97.35 1428.66C97.35 1430.3100000000002 98.71 1431.66 100.38 1431.66C102.06 1431.66 103.42 1430.3100000000002 103.42 1428.66ZM130.58 1428.66C130.58 1427 129.22 1425.65 127.55000000000001 1425.65C125.88000000000001 1425.65 124.52000000000001 1427 124.52000000000001 1428.66C124.52000000000001 1430.3100000000002 125.88000000000001 1431.66 127.55000000000001 1431.66C129.22 1431.66 130.58 1430.3100000000002 130.58 1428.66ZM139.54 1421.99C139.92999999999998 1422.23 140.04999999999998 1422.73 139.81 1423.11L138.5 1425.26C138.35 1425.5 138.08 1425.65 137.79 1425.65L131.10999999999999 1425.65C131.80999999999997 1426.46 132.23 1427.51 132.23 1428.66C132.23 1431.21 130.13 1433.2900000000002 127.54999999999998 1433.2900000000002C124.96999999999998 1433.2900000000002 122.86999999999998 1431.2100000000003 122.86999999999998 1428.66C122.86999999999998 1427.51 123.28999999999998 1426.46 123.98999999999998 1425.65L123.09999999999998 1425.65C122.67999999999998 1430.2800000000002 118.74999999999999 1433.92 113.96999999999998 1433.92C109.18999999999998 1433.92 105.24999999999999 1430.28 104.83999999999999 1425.65L103.94999999999999 1425.65C104.63999999999999 1426.46 105.07 1427.51 105.07 1428.66C105.07 1431.21 102.97 1433.2900000000002 100.38 1433.2900000000002C97.8 1433.2900000000002 95.69999999999999 1431.2100000000003 95.69999999999999 1428.66C95.69999999999999 1427.51 96.13 1426.46 96.82999999999998 1425.65L90.13999999999999 1425.65C89.84999999999998 1425.65 89.58999999999999 1425.5 89.43999999999998 1425.26L88.11999999999999 1423.11C87.88 1422.7299999999998 88.00999999999999 1422.2299999999998 88.38999999999999 1421.99C88.77999999999999 1421.76 89.28999999999999 1421.88 89.52999999999999 1422.27L90.59999999999998 1424.02L104.83999999999997 1424.02C105.03999999999998 1421.77 106.06999999999998 1419.76 107.62999999999998 1418.29L106.16999999999999 1418.29C105.71999999999998 1418.29 105.35 1417.92 105.35 1417.47C105.35 1417.02 105.72 1416.65 106.16999999999999 1416.65L109.98999999999998 1416.65C110.95999999999998 1416.19 112.01999999999998 1415.89 113.13999999999999 1415.7900000000002L113.13999999999999 1411.8200000000002C113.13999999999999 1411.3700000000001 113.50999999999999 1411.0000000000002 113.96999999999998 1411.0000000000002C114.41999999999999 1411.0000000000002 114.78999999999998 1411.3700000000001 114.78999999999998 1411.8200000000002L114.78999999999998 1415.7900000000002C115.90999999999998 1415.89 116.96999999999998 1416.1900000000003 117.93999999999998 1416.65L121.75999999999998 1416.65C122.21999999999997 1416.65 122.58999999999997 1417.02 122.58999999999997 1417.47C122.58999999999997 1417.92 122.21999999999997 1418.29 121.75999999999998 1418.29L120.30999999999997 1418.29C121.85999999999997 1419.76 122.88999999999997 1421.77 123.09999999999998 1424.02L137.32999999999998 1424.02L138.41 1422.27C138.64 1421.8799999999999 139.15 1421.76 139.54 1421.99Z " fill="#ffffff" fill-opacity="1" transform="matrix(1,0,0,1,-87,-1411)"></path><path id="SvgjsPath1045" d="M113.97 1432.29C118.12 1432.29 121.49 1428.94 121.49 1424.84C121.49 1420.73 118.11 1417.3899999999999 113.97 1417.3899999999999C109.82 1417.3899999999999 106.45 1420.7299999999998 106.45 1424.84C106.45 1428.9399999999998 109.82000000000001 1432.29 113.97 1432.29ZM103.42 1428.66C103.42 1427 102.06 1425.65 100.38 1425.65C98.71 1425.65 97.35 1427 97.35 1428.66C97.35 1430.3100000000002 98.71 1431.66 100.38 1431.66C102.06 1431.66 103.42 1430.3100000000002 103.42 1428.66ZM130.58 1428.66C130.58 1427 129.22 1425.65 127.55000000000001 1425.65C125.88000000000001 1425.65 124.52000000000001 1427 124.52000000000001 1428.66C124.52000000000001 1430.3100000000002 125.88000000000001 1431.66 127.55000000000001 1431.66C129.22 1431.66 130.58 1430.3100000000002 130.58 1428.66ZM139.54 1421.99C139.92999999999998 1422.23 140.04999999999998 1422.73 139.81 1423.11L138.5 1425.26C138.35 1425.5 138.08 1425.65 137.79 1425.65L131.10999999999999 1425.65C131.80999999999997 1426.46 132.23 1427.51 132.23 1428.66C132.23 1431.21 130.13 1433.2900000000002 127.54999999999998 1433.2900000000002C124.96999999999998 1433.2900000000002 122.86999999999998 1431.2100000000003 122.86999999999998 1428.66C122.86999999999998 1427.51 123.28999999999998 1426.46 123.98999999999998 1425.65L123.09999999999998 1425.65C122.67999999999998 1430.2800000000002 118.74999999999999 1433.92 113.96999999999998 1433.92C109.18999999999998 1433.92 105.24999999999999 1430.28 104.83999999999999 1425.65L103.94999999999999 1425.65C104.63999999999999 1426.46 105.07 1427.51 105.07 1428.66C105.07 1431.21 102.97 1433.2900000000002 100.38 1433.2900000000002C97.8 1433.2900000000002 95.69999999999999 1431.2100000000003 95.69999999999999 1428.66C95.69999999999999 1427.51 96.13 1426.46 96.82999999999998 1425.65L90.13999999999999 1425.65C89.84999999999998 1425.65 89.58999999999999 1425.5 89.43999999999998 1425.26L88.11999999999999 1423.11C87.88 1422.7299999999998 88.00999999999999 1422.2299999999998 88.38999999999999 1421.99C88.77999999999999 1421.76 89.28999999999999 1421.88 89.52999999999999 1422.27L90.59999999999998 1424.02L104.83999999999997 1424.02C105.03999999999998 1421.77 106.06999999999998 1419.76 107.62999999999998 1418.29L106.16999999999999 1418.29C105.71999999999998 1418.29 105.35 1417.92 105.35 1417.47C105.35 1417.02 105.72 1416.65 106.16999999999999 1416.65L109.98999999999998 1416.65C110.95999999999998 1416.19 112.01999999999998 1415.89 113.13999999999999 1415.7900000000002L113.13999999999999 1411.8200000000002C113.13999999999999 1411.3700000000001 113.50999999999999 1411.0000000000002 113.96999999999998 1411.0000000000002C114.41999999999999 1411.0000000000002 114.78999999999998 1411.3700000000001 114.78999999999998 1411.8200000000002L114.78999999999998 1415.7900000000002C115.90999999999998 1415.89 116.96999999999998 1416.1900000000003 117.93999999999998 1416.65L121.75999999999998 1416.65C122.21999999999997 1416.65 122.58999999999997 1417.02 122.58999999999997 1417.47C122.58999999999997 1417.92 122.21999999999997 1418.29 121.75999999999998 1418.29L120.30999999999997 1418.29C121.85999999999997 1419.76 122.88999999999997 1421.77 123.09999999999998 1424.02L137.32999999999998 1424.02L138.41 1422.27C138.64 1421.8799999999999 139.15 1421.76 139.54 1421.99Z " fill="#ffffff" fill-opacity="1" transform="matrix(1,0,0,1,-87,-1411)"></path><path id="SvgjsPath1046" d="M101.1 1428.35C101.1 1428.75 100.78 1429.07 100.38 1429.07C99.97 1429.07 99.64999999999999 1428.75 99.64999999999999 1428.35C99.64999999999999 1427.9499999999998 99.96999999999998 1427.6299999999999 100.38 1427.6299999999999C100.78 1427.6299999999999 101.1 1427.9499999999998 101.1 1428.35ZM102.75 1428.35C102.75 1427.05 101.69 1426 100.38 1426C99.06 1426 98 1427.05 98 1428.35C98 1429.6499999999999 99.06 1430.6999999999998 100.38 1430.6999999999998C101.69 1430.6999999999998 102.75 1429.6499999999999 102.75 1428.35Z " fill="#ffffff" fill-opacity="1" transform="matrix(1,0,0,1,-87,-1411)"></path><path id="SvgjsPath1047" d="M101.1 1428.35C101.1 1428.75 100.78 1429.07 100.38 1429.07C99.97 1429.07 99.64999999999999 1428.75 99.64999999999999 1428.35C99.64999999999999 1427.9499999999998 99.96999999999998 1427.6299999999999 100.38 1427.6299999999999C100.78 1427.6299999999999 101.1 1427.9499999999998 101.1 1428.35ZM102.75 1428.35C102.75 1427.05 101.69 1426 100.38 1426C99.06 1426 98 1427.05 98 1428.35C98 1429.6499999999999 99.06 1430.6999999999998 100.38 1430.6999999999998C101.69 1430.6999999999998 102.75 1429.6499999999999 102.75 1428.35Z " fill="#ffffff" fill-opacity="1" transform="matrix(1,0,0,1,-87,-1411)"></path><path id="SvgjsPath1048" d="M128.1 1428.35C128.1 1428.75 127.78 1429.07 127.38 1429.07C126.97 1429.07 126.64999999999999 1428.75 126.64999999999999 1428.35C126.64999999999999 1427.9499999999998 126.96999999999998 1427.6299999999999 127.38 1427.6299999999999C127.78 1427.6299999999999 128.1 1427.9499999999998 128.1 1428.35ZM129.75 1428.35C129.75 1427.05 128.69 1426 127.38 1426C126.06 1426 125 1427.05 125 1428.35C125 1429.6499999999999 126.06 1430.6999999999998 127.38 1430.6999999999998C128.69 1430.6999999999998 129.75 1429.6499999999999 129.75 1428.35Z " fill="#ffffff" fill-opacity="1" transform="matrix(1,0,0,1,-87,-1411)"></path><path id="SvgjsPath1049" d="M128.1 1428.35C128.1 1428.75 127.78 1429.07 127.38 1429.07C126.97 1429.07 126.64999999999999 1428.75 126.64999999999999 1428.35C126.64999999999999 1427.9499999999998 126.96999999999998 1427.6299999999999 127.38 1427.6299999999999C127.78 1427.6299999999999 128.1 1427.9499999999998 128.1 1428.35ZM129.75 1428.35C129.75 1427.05 128.69 1426 127.38 1426C126.06 1426 125 1427.05 125 1428.35C125 1429.6499999999999 126.06 1430.6999999999998 127.38 1430.6999999999998C128.69 1430.6999999999998 129.75 1429.6499999999999 129.75 1428.35Z " fill="#ffffff" fill-opacity="1" transform="matrix(1,0,0,1,-87,-1411)"></path><path id="SvgjsPath1050" d="M111.65 1426.16C111.65 1424.77 112.79 1423.63 114.2 1423.63C115.61 1423.63 116.76 1424.7700000000002 116.76 1426.16C116.76 1427.5600000000002 115.61 1428.69 114.2 1428.69C112.79 1428.69 111.65 1427.56 111.65 1426.16ZM110 1426.16C110 1428.46 111.89 1430.3200000000002 114.2 1430.3200000000002C116.52 1430.3200000000002 118.4 1428.4600000000003 118.4 1426.16C118.4 1423.8700000000001 116.52000000000001 1422 114.2 1422C111.89 1422 110 1423.87 110 1426.16Z " fill="#ffffff" fill-opacity="1" transform="matrix(1,0,0,1,-87,-1411)"></path><path id="SvgjsPath1051" d="M118.38 1420.57C117.1 1419.56 115.49 1419 113.85 1419C112.19999999999999 1419 110.58999999999999 1419.56 109.30999999999999 1420.57C108.94999999999999 1420.84 108.89999999999999 1421.36 109.17999999999999 1421.71C109.46 1422.06 109.97999999999999 1422.1200000000001 110.33999999999999 1421.8400000000001C111.33999999999999 1421.0500000000002 112.55999999999999 1420.63 113.85 1420.63C115.14 1420.63 116.35 1421.0500000000002 117.36 1421.8400000000001C117.51 1421.96 117.69 1422.0200000000002 117.87 1422.0200000000002C118.11 1422.0200000000002 118.35000000000001 1421.9100000000003 118.52000000000001 1421.7100000000003C118.80000000000001 1421.3600000000004 118.74000000000001 1420.8400000000004 118.38000000000001 1420.5700000000002 " fill="#ffffff" fill-opacity="1" transform="matrix(1,0,0,1,-87,-1411)"></path><path id="SvgjsPath1052" d="M113.97 1432.29C118.12 1432.29 121.49 1428.94 121.49 1424.84C121.49 1420.73 118.11 1417.3899999999999 113.97 1417.3899999999999C109.82 1417.3899999999999 106.45 1420.7299999999998 106.45 1424.84C106.45 1428.9399999999998 109.82000000000001 1432.29 113.97 1432.29ZM103.42 1428.66C103.42 1427 102.06 1425.65 100.38 1425.65C98.71 1425.65 97.35 1427 97.35 1428.66C97.35 1430.3100000000002 98.71 1431.66 100.38 1431.66C102.06 1431.66 103.42 1430.3100000000002 103.42 1428.66ZM130.58 1428.66C130.58 1427 129.22 1425.65 127.55000000000001 1425.65C125.88000000000001 1425.65 124.52000000000001 1427 124.52000000000001 1428.66C124.52000000000001 1430.3100000000002 125.88000000000001 1431.66 127.55000000000001 1431.66C129.22 1431.66 130.58 1430.3100000000002 130.58 1428.66ZM139.54 1421.99C139.92999999999998 1422.23 140.04999999999998 1422.73 139.81 1423.11L138.5 1425.26C138.35 1425.5 138.08 1425.65 137.79 1425.65L131.10999999999999 1425.65C131.80999999999997 1426.46 132.23 1427.51 132.23 1428.66C132.23 1431.21 130.13 1433.2900000000002 127.54999999999998 1433.2900000000002C124.96999999999998 1433.2900000000002 122.86999999999998 1431.2100000000003 122.86999999999998 1428.66C122.86999999999998 1427.51 123.28999999999998 1426.46 123.98999999999998 1425.65L123.09999999999998 1425.65C122.67999999999998 1430.2800000000002 118.74999999999999 1433.92 113.96999999999998 1433.92C109.18999999999998 1433.92 105.24999999999999 1430.28 104.83999999999999 1425.65L103.94999999999999 1425.65C104.63999999999999 1426.46 105.07 1427.51 105.07 1428.66C105.07 1431.21 102.97 1433.2900000000002 100.38 1433.2900000000002C97.8 1433.2900000000002 95.69999999999999 1431.2100000000003 95.69999999999999 1428.66C95.69999999999999 1427.51 96.13 1426.46 96.82999999999998 1425.65L90.13999999999999 1425.65C89.84999999999998 1425.65 89.58999999999999 1425.5 89.43999999999998 1425.26L88.11999999999999 1423.11C87.88 1422.7299999999998 88.00999999999999 1422.2299999999998 88.38999999999999 1421.99C88.77999999999999 1421.76 89.28999999999999 1421.88 89.52999999999999 1422.27L90.59999999999998 1424.02L104.83999999999997 1424.02C105.03999999999998 1421.77 106.06999999999998 1419.76 107.62999999999998 1418.29L106.16999999999999 1418.29C105.71999999999998 1418.29 105.35 1417.92 105.35 1417.47C105.35 1417.02 105.72 1416.65 106.16999999999999 1416.65L109.98999999999998 1416.65C110.95999999999998 1416.19 112.01999999999998 1415.89 113.13999999999999 1415.7900000000002L113.13999999999999 1411.8200000000002C113.13999999999999 1411.3700000000001 113.50999999999999 1411.0000000000002 113.96999999999998 1411.0000000000002C114.41999999999999 1411.0000000000002 114.78999999999998 1411.3700000000001 114.78999999999998 1411.8200000000002L114.78999999999998 1415.7900000000002C115.90999999999998 1415.89 116.96999999999998 1416.1900000000003 117.93999999999998 1416.65L121.75999999999998 1416.65C122.21999999999997 1416.65 122.58999999999997 1417.02 122.58999999999997 1417.47C122.58999999999997 1417.92 122.21999999999997 1418.29 121.75999999999998 1418.29L120.30999999999997 1418.29C121.85999999999997 1419.76 122.88999999999997 1421.77 123.09999999999998 1424.02L137.32999999999998 1424.02L138.41 1422.27C138.64 1421.8799999999999 139.15 1421.76 139.54 1421.99Z " fill="#ffffff" fill-opacity="1" transform="matrix(1,0,0,1,-87,-1411)"></path><path id="SvgjsPath1053" d="M101.1 1428.35C101.1 1428.75 100.78 1429.07 100.38 1429.07C99.97 1429.07 99.64999999999999 1428.75 99.64999999999999 1428.35C99.64999999999999 1427.9499999999998 99.96999999999998 1427.6299999999999 100.38 1427.6299999999999C100.78 1427.6299999999999 101.1 1427.9499999999998 101.1 1428.35ZM102.75 1428.35C102.75 1427.05 101.69 1426 100.38 1426C99.06 1426 98 1427.05 98 1428.35C98 1429.6499999999999 99.06 1430.6999999999998 100.38 1430.6999999999998C101.69 1430.6999999999998 102.75 1429.6499999999999 102.75 1428.35Z " fill="#ffffff" fill-opacity="1" transform="matrix(1,0,0,1,-87,-1411)"></path><path id="SvgjsPath1054" d="M128.1 1428.35C128.1 1428.75 127.78 1429.07 127.38 1429.07C126.97 1429.07 126.64999999999999 1428.75 126.64999999999999 1428.35C126.64999999999999 1427.9499999999998 126.96999999999998 1427.6299999999999 127.38 1427.6299999999999C127.78 1427.6299999999999 128.1 1427.9499999999998 128.1 1428.35ZM129.75 1428.35C129.75 1427.05 128.69 1426 127.38 1426C126.06 1426 125 1427.05 125 1428.35C125 1429.6499999999999 126.06 1430.6999999999998 127.38 1430.6999999999998C128.69 1430.6999999999998 129.75 1429.6499999999999 129.75 1428.35Z " fill="#ffffff" fill-opacity="1" transform="matrix(1,0,0,1,-87,-1411)"></path></svg>