<svg id="SvgjsSvg1011" xmlns="http://www.w3.org/2000/svg" version="1.1" xmlns:xlink="http://www.w3.org/1999/xlink" xmlns:svgjs="http://svgjs.com/svgjs" width="41" height="23"><defs id="SvgjsDefs1012"></defs><path id="SvgjsPath1013" d="M52.83 1522.22C52.83 1519.65 54.17 1517.39 56.18 1516.08L59.51 1522.54C59.629999999999995 1522.78 59.879999999999995 1522.92 60.129999999999995 1522.92C60.239999999999995 1522.92 60.349999999999994 1522.89 60.449999999999996 1522.8400000000001C60.8 1522.66 60.92999999999999 1522.2400000000002 60.74999999999999 1521.9L57.42999999999999 1515.44C58.25999999999999 1515.1100000000001 59.169999999999995 1514.92 60.129999999999995 1514.92C64.14999999999999 1514.92 67.42999999999999 1518.19 67.42999999999999 1522.22C67.42999999999999 1526.24 64.14999999999999 1529.52 60.129999999999995 1529.52C56.11 1529.52 52.83 1526.24 52.83 1522.22ZM29.4 1522.22C29.4 1518.19 32.68 1514.92 36.699999999999996 1514.92C37.91 1514.92 39.05 1515.21 40.05 1515.74L36.11 1521.84C35.97 1522.05 35.96 1522.33 36.089999999999996 1522.55C36.209999999999994 1522.78 36.449999999999996 1522.9199999999998 36.699999999999996 1522.9199999999998L43.97 1522.9199999999998C43.61 1526.62 40.49 1529.5199999999998 36.7 1529.5199999999998C32.68000000000001 1529.5199999999998 29.400000000000002 1526.2399999999998 29.400000000000002 1522.2199999999998ZM48.45 1520.82L44.370000000000005 1512.8L53.64 1512.8ZM43.15 1513.52L47.239999999999995 1521.52L45.379999999999995 1521.52C45.169999999999995 1519 43.88999999999999 1516.77 41.989999999999995 1515.32ZM37.99 1521.52L41.230000000000004 1516.5C42.74 1517.7 43.77 1519.49 43.970000000000006 1521.52ZM56.78 1514.19L54.31 1509.4L57.760000000000005 1509.4C58.13 1509.4 58.440000000000005 1509.71 58.440000000000005 1510.0800000000002C58.440000000000005 1510.45 58.13 1510.7600000000002 57.760000000000005 1510.7600000000002L57.03000000000001 1510.7600000000002C56.64000000000001 1510.7600000000002 56.32000000000001 1511.0700000000002 56.32000000000001 1511.4600000000003C56.32000000000001 1511.8500000000004 56.64000000000001 1512.1600000000003 57.03000000000001 1512.1600000000003L57.760000000000005 1512.1600000000003C58.910000000000004 1512.1600000000003 59.84 1511.2300000000002 59.84 1510.0800000000004C59.84 1508.9300000000003 58.910000000000004 1508.0000000000005 57.760000000000005 1508.0000000000005L53.160000000000004 1508.0000000000005C52.92 1508.0000000000005 52.690000000000005 1508.1300000000006 52.56 1508.3400000000004C52.440000000000005 1508.5400000000004 52.43 1508.8000000000004 52.54 1509.0200000000004L53.769999999999996 1511.4000000000005L43.65 1511.4000000000005L42.629999999999995 1509.4000000000005L44.239999999999995 1509.4000000000005C44.629999999999995 1509.4000000000005 44.94 1509.0900000000006 44.94 1508.7000000000005C44.94 1508.3100000000004 44.629999999999995 1508.0000000000005 44.239999999999995 1508.0000000000005L39.64999999999999 1508.0000000000005C39.25999999999999 1508.0000000000005 38.93999999999999 1508.3100000000004 38.93999999999999 1508.7000000000005C38.93999999999999 1509.0900000000006 39.25999999999999 1509.4000000000005 39.64999999999999 1509.4000000000005L41.05999999999999 1509.4000000000005L42.41999999999999 1512.0700000000006L40.819999999999986 1514.5500000000006C39.58999999999999 1513.8900000000006 38.18999999999998 1513.5200000000007 36.69999999999999 1513.5200000000007C31.899999999999988 1513.5200000000007 27.99999999999999 1517.4200000000008 27.99999999999999 1522.2200000000007C27.99999999999999 1527.0200000000007 31.899999999999988 1530.9200000000008 36.69999999999999 1530.9200000000008C41.25999999999999 1530.9200000000008 45.01999999999999 1527.3900000000008 45.37999999999999 1522.9200000000008L47.429999999999986 1522.9200000000008L46.62999999999999 1525.5200000000007L46.16999999999999 1525.5200000000007C45.789999999999985 1525.5200000000007 45.469999999999985 1525.8300000000006 45.469999999999985 1526.2200000000007C45.469999999999985 1526.6100000000008 45.789999999999985 1526.9200000000008 46.16999999999999 1526.9200000000008L48.69999999999999 1526.9200000000008C49.07999999999999 1526.9200000000008 49.39999999999999 1526.6100000000008 49.39999999999999 1526.2200000000007C49.39999999999999 1525.8300000000006 49.07999999999999 1525.5200000000007 48.69999999999999 1525.5200000000007L48.09999999999999 1525.5200000000007L49.01999999999999 1522.5200000000007L54.859999999999985 1513.5100000000007L55.539999999999985 1514.8300000000006C53.069999999999986 1516.3700000000006 51.429999999999986 1519.1100000000006 51.429999999999986 1522.2200000000007C51.429999999999986 1527.0200000000007 55.329999999999984 1530.9200000000008 60.12999999999998 1530.9200000000008C64.92999999999998 1530.9200000000008 68.82999999999998 1527.0200000000007 68.82999999999998 1522.2200000000007C68.82999999999998 1517.4200000000008 64.92999999999998 1513.5200000000007 60.12999999999998 1513.5200000000007C58.93999999999998 1513.5200000000007 57.80999999999998 1513.7600000000007 56.77999999999998 1514.1900000000007Z " fill="#ffffff" fill-opacity="1" transform="matrix(1,0,0,1,-28,-1508)"></path></svg>