<svg id="SvgjsSvg1034" xmlns="http://www.w3.org/2000/svg" version="1.1" xmlns:xlink="http://www.w3.org/1999/xlink" xmlns:svgjs="http://svgjs.com/svgjs" width="42" height="38"><defs id="SvgjsDefs1035"></defs><path id="SvgjsPath1036" d="M130.34 1834.75L134.32 1834.75C134.88 1834.75 135.32999999999998 1834.29 135.32999999999998 1833.73L135.32999999999998 1827.8700000000001C135.32999999999998 1827.66 135.26999999999998 1827.45 135.14999999999998 1827.2800000000002L125.32999999999998 1813.3200000000002C125.13999999999999 1813.0500000000002 124.83999999999999 1812.88 124.50999999999999 1812.88L120.19 1812.88L120.19 1811.5300000000002C120.19 1809.65 118.67999999999999 1808.13 116.82 1808.13L116.77999999999999 1808.13C114.91999999999999 1808.13 113.40999999999998 1809.65 113.40999999999998 1811.5300000000002L113.40999999999998 1812.88L95.00999999999999 1812.88C94.44999999999999 1812.88 93.99999999999999 1813.3400000000001 93.99999999999999 1813.91L93.99999999999999 1833.73C93.99999999999999 1834.29 94.44999999999999 1834.75 95.00999999999999 1834.75L99.05 1834.75C99.24 1835.85 99.73 1836.85 100.42999999999999 1837.66L95.08 1837.66C94.52 1837.66 94.06 1838.1100000000001 94.06 1838.68C94.06 1839.25 94.52 1839.71 95.08 1839.71L134.32 1839.71C134.88 1839.71 135.32999999999998 1839.25 135.32999999999998 1838.68C135.32999999999998 1838.1100000000001 134.88 1837.66 134.32 1837.66L128.95999999999998 1837.66C129.65999999999997 1836.8500000000001 130.14999999999998 1835.8500000000001 130.33999999999997 1834.75ZM130.34 1832.7C129.86 1829.89 127.43 1827.75 124.51 1827.75C121.59 1827.75 119.16000000000001 1829.89 118.67 1832.7L110.72 1832.7C110.24 1829.89 107.8 1827.75 104.89 1827.75C101.97 1827.75 99.54 1829.89 99.05 1832.7L96.03 1832.7L96.03 1814.93L123.98 1814.93L133.3 1828.19L133.3 1832.7ZM122.62 1817.76C122.43 1817.48 122.13000000000001 1817.32 121.80000000000001 1817.32L116.15 1817.32C115.59 1817.32 115.14 1817.78 115.14 1818.35L115.14 1823.82C115.14 1824.3799999999999 115.59 1824.84 116.15 1824.84L125.64 1824.84C126.02 1824.84 126.37 1824.6299999999999 126.54 1824.29C126.72000000000001 1823.95 126.69000000000001 1823.54 126.47000000000001 1823.22ZM108.78 1833.73C108.78 1835.89 107.03 1837.66 104.89 1837.66C102.74 1837.66 100.99 1835.89 100.99 1833.73C100.99 1831.56 102.74 1829.8 104.89 1829.8C107.03 1829.8 108.78 1831.56 108.78 1833.73ZM128.4 1833.73C128.4 1835.89 126.65 1837.66 124.51 1837.66C122.36 1837.66 120.62 1835.89 120.62 1833.73C120.62 1831.56 122.36 1829.8 124.51 1829.8C126.65 1829.8 128.4 1831.56 128.4 1833.73ZM106.15 1819.99L106.15 1818.22C106.15 1817.66 105.69000000000001 1817.2 105.13000000000001 1817.2C104.57000000000001 1817.2 104.12 1817.66 104.12 1818.22L104.12 1819.99L102.36 1819.99C101.8 1819.99 101.35 1820.45 101.35 1821.02C101.35 1821.59 101.8 1822.04 102.36 1822.04L104.12 1822.04L104.12 1823.82C104.12 1824.3799999999999 104.57000000000001 1824.84 105.13000000000001 1824.84C105.69000000000001 1824.84 106.15 1824.3799999999999 106.15 1823.82L106.15 1822.04L107.9 1822.04C108.47 1822.04 108.92 1821.59 108.92 1821.02C108.92 1820.45 108.47 1819.99 107.9 1819.99ZM109.34 1837.66C110.04 1836.8500000000001 110.53 1835.8500000000001 110.72 1834.75L118.67 1834.75C118.86 1835.85 119.35000000000001 1836.85 120.05 1837.66ZM117.17 1822.79L117.17 1819.37L121.27 1819.37L123.67999999999999 1822.79ZM111.98 1808.09C112.18 1808.29 112.44 1808.3899999999999 112.7 1808.3899999999999C112.96000000000001 1808.3899999999999 113.22 1808.29 113.42 1808.09C113.82000000000001 1807.6899999999998 113.82000000000001 1807.04 113.42 1806.6399999999999L111.64 1804.84C111.24 1804.4399999999998 110.6 1804.4399999999998 110.2 1804.84C109.81 1805.24 109.81 1805.8899999999999 110.2 1806.29ZM117.82 1805.57L117.82 1803.03C117.82 1802.46 117.36 1802 116.8 1802C116.24 1802 115.78999999999999 1802.46 115.78999999999999 1803.03L115.78999999999999 1805.57C115.78999999999999 1806.1299999999999 116.24 1806.59 116.8 1806.59C117.36 1806.59 117.82 1806.1299999999999 117.82 1805.57ZM115.44 1812.88L115.44 1811.5300000000002C115.44 1810.7800000000002 116.03999999999999 1810.1800000000003 116.78 1810.1800000000003L116.82000000000001 1810.1800000000003C117.56 1810.1800000000003 118.16000000000001 1810.7800000000002 118.16000000000001 1811.5300000000002L118.16000000000001 1812.88ZM103.76 1833.73C103.76 1834.35 104.27000000000001 1834.8600000000001 104.89 1834.8600000000001C105.51 1834.8600000000001 106.01 1834.3500000000001 106.01 1833.73C106.01 1833.1 105.51 1832.59 104.89 1832.59C104.27 1832.59 103.76 1833.1 103.76 1833.73ZM123.38 1833.73C123.38 1834.35 123.89 1834.8600000000001 124.50999999999999 1834.8600000000001C125.13 1834.8600000000001 125.63 1834.3500000000001 125.63 1833.73C125.63 1833.1 125.13 1832.59 124.50999999999999 1832.59C123.88999999999999 1832.59 123.38 1833.1 123.38 1833.73ZM119.94 1806.64L121.72 1804.8400000000001C122.12 1804.44 122.76 1804.44 123.16 1804.8400000000001C123.55 1805.2400000000002 123.55 1805.89 123.16 1806.2900000000002L121.38 1808.0900000000001C121.17999999999999 1808.2900000000002 120.92 1808.39 120.66 1808.39C120.39999999999999 1808.39 120.14 1808.2900000000002 119.94 1808.0900000000001C119.55 1807.69 119.55 1807.0400000000002 119.94 1806.64Z " fill="#ffffff" fill-opacity="1" transform="matrix(1,0,0,1,-94,-1802)"></path><path id="SvgjsPath1037" d="M130.34 1834.75L134.32 1834.75C134.88 1834.75 135.32999999999998 1834.29 135.32999999999998 1833.73L135.32999999999998 1827.8700000000001C135.32999999999998 1827.66 135.26999999999998 1827.45 135.14999999999998 1827.2800000000002L125.32999999999998 1813.3200000000002C125.13999999999999 1813.0500000000002 124.83999999999999 1812.88 124.50999999999999 1812.88L120.19 1812.88L120.19 1811.5300000000002C120.19 1809.65 118.67999999999999 1808.13 116.82 1808.13L116.77999999999999 1808.13C114.91999999999999 1808.13 113.40999999999998 1809.65 113.40999999999998 1811.5300000000002L113.40999999999998 1812.88L95.00999999999999 1812.88C94.44999999999999 1812.88 93.99999999999999 1813.3400000000001 93.99999999999999 1813.91L93.99999999999999 1833.73C93.99999999999999 1834.29 94.44999999999999 1834.75 95.00999999999999 1834.75L99.05 1834.75C99.24 1835.85 99.73 1836.85 100.42999999999999 1837.66L95.08 1837.66C94.52 1837.66 94.06 1838.1100000000001 94.06 1838.68C94.06 1839.25 94.52 1839.71 95.08 1839.71L134.32 1839.71C134.88 1839.71 135.32999999999998 1839.25 135.32999999999998 1838.68C135.32999999999998 1838.1100000000001 134.88 1837.66 134.32 1837.66L128.95999999999998 1837.66C129.65999999999997 1836.8500000000001 130.14999999999998 1835.8500000000001 130.33999999999997 1834.75ZM130.34 1832.7C129.86 1829.89 127.43 1827.75 124.51 1827.75C121.59 1827.75 119.16000000000001 1829.89 118.67 1832.7L110.72 1832.7C110.24 1829.89 107.8 1827.75 104.89 1827.75C101.97 1827.75 99.54 1829.89 99.05 1832.7L96.03 1832.7L96.03 1814.93L123.98 1814.93L133.3 1828.19L133.3 1832.7ZM122.62 1817.76C122.43 1817.48 122.13000000000001 1817.32 121.80000000000001 1817.32L116.15 1817.32C115.59 1817.32 115.14 1817.78 115.14 1818.35L115.14 1823.82C115.14 1824.3799999999999 115.59 1824.84 116.15 1824.84L125.64 1824.84C126.02 1824.84 126.37 1824.6299999999999 126.54 1824.29C126.72000000000001 1823.95 126.69000000000001 1823.54 126.47000000000001 1823.22ZM108.78 1833.73C108.78 1835.89 107.03 1837.66 104.89 1837.66C102.74 1837.66 100.99 1835.89 100.99 1833.73C100.99 1831.56 102.74 1829.8 104.89 1829.8C107.03 1829.8 108.78 1831.56 108.78 1833.73ZM128.4 1833.73C128.4 1835.89 126.65 1837.66 124.51 1837.66C122.36 1837.66 120.62 1835.89 120.62 1833.73C120.62 1831.56 122.36 1829.8 124.51 1829.8C126.65 1829.8 128.4 1831.56 128.4 1833.73ZM106.15 1819.99L106.15 1818.22C106.15 1817.66 105.69000000000001 1817.2 105.13000000000001 1817.2C104.57000000000001 1817.2 104.12 1817.66 104.12 1818.22L104.12 1819.99L102.36 1819.99C101.8 1819.99 101.35 1820.45 101.35 1821.02C101.35 1821.59 101.8 1822.04 102.36 1822.04L104.12 1822.04L104.12 1823.82C104.12 1824.3799999999999 104.57000000000001 1824.84 105.13000000000001 1824.84C105.69000000000001 1824.84 106.15 1824.3799999999999 106.15 1823.82L106.15 1822.04L107.9 1822.04C108.47 1822.04 108.92 1821.59 108.92 1821.02C108.92 1820.45 108.47 1819.99 107.9 1819.99ZM109.34 1837.66C110.04 1836.8500000000001 110.53 1835.8500000000001 110.72 1834.75L118.67 1834.75C118.86 1835.85 119.35000000000001 1836.85 120.05 1837.66ZM117.17 1822.79L117.17 1819.37L121.27 1819.37L123.67999999999999 1822.79ZM111.98 1808.09C112.18 1808.29 112.44 1808.3899999999999 112.7 1808.3899999999999C112.96000000000001 1808.3899999999999 113.22 1808.29 113.42 1808.09C113.82000000000001 1807.6899999999998 113.82000000000001 1807.04 113.42 1806.6399999999999L111.64 1804.84C111.24 1804.4399999999998 110.6 1804.4399999999998 110.2 1804.84C109.81 1805.24 109.81 1805.8899999999999 110.2 1806.29ZM117.82 1805.57L117.82 1803.03C117.82 1802.46 117.36 1802 116.8 1802C116.24 1802 115.78999999999999 1802.46 115.78999999999999 1803.03L115.78999999999999 1805.57C115.78999999999999 1806.1299999999999 116.24 1806.59 116.8 1806.59C117.36 1806.59 117.82 1806.1299999999999 117.82 1805.57ZM115.44 1812.88L115.44 1811.5300000000002C115.44 1810.7800000000002 116.03999999999999 1810.1800000000003 116.78 1810.1800000000003L116.82000000000001 1810.1800000000003C117.56 1810.1800000000003 118.16000000000001 1810.7800000000002 118.16000000000001 1811.5300000000002L118.16000000000001 1812.88ZM103.76 1833.73C103.76 1834.35 104.27000000000001 1834.8600000000001 104.89 1834.8600000000001C105.51 1834.8600000000001 106.01 1834.3500000000001 106.01 1833.73C106.01 1833.1 105.51 1832.59 104.89 1832.59C104.27 1832.59 103.76 1833.1 103.76 1833.73ZM123.38 1833.73C123.38 1834.35 123.89 1834.8600000000001 124.50999999999999 1834.8600000000001C125.13 1834.8600000000001 125.63 1834.3500000000001 125.63 1833.73C125.63 1833.1 125.13 1832.59 124.50999999999999 1832.59C123.88999999999999 1832.59 123.38 1833.1 123.38 1833.73ZM119.94 1806.64L121.72 1804.8400000000001C122.12 1804.44 122.76 1804.44 123.16 1804.8400000000001C123.55 1805.2400000000002 123.55 1805.89 123.16 1806.2900000000002L121.38 1808.0900000000001C121.17999999999999 1808.2900000000002 120.92 1808.39 120.66 1808.39C120.39999999999999 1808.39 120.14 1808.2900000000002 119.94 1808.0900000000001C119.55 1807.69 119.55 1807.0400000000002 119.94 1806.64Z " fill="#ffffff" fill-opacity="1" transform="matrix(1,0,0,1,-94,-1802)"></path></svg>