<svg id="SvgjsSvg1020" xmlns="http://www.w3.org/2000/svg" version="1.1" xmlns:xlink="http://www.w3.org/1999/xlink" xmlns:svgjs="http://svgjs.com/svgjs" width="38" height="38"><defs id="SvgjsDefs1021"></defs><path id="SvgjsPath1022" d="M124.97 1709.39C124.39 1709.5400000000002 119.99 1710.0800000000002 107.43 1697.47C94.93 1684.92 95.41000000000001 1680.45 95.55000000000001 1679.84L100.55000000000001 1674.83L108.71000000000001 1683.02L105.27000000000001 1686.48C105.00000000000001 1686.75 104.98 1687.2 105.23 1687.5C106.87 1689.46 108.84 1691.59 111.06 1693.82C113.28 1696.05 115.4 1698.02 117.35000000000001 1699.6699999999998C117.65 1699.9299999999998 118.09 1699.9099999999999 118.37 1699.6299999999999L121.81 1696.1699999999998L129.97 1704.37ZM122.34 1694.57C122.05 1694.27 121.57000000000001 1694.27 121.28 1694.57L117.79 1698.07C116.02000000000001 1696.54 114.12 1694.75 112.12 1692.75C110.13000000000001 1690.75 108.35000000000001 1688.83 106.83 1687.05L110.31 1683.56C110.61 1683.26 110.61 1682.78 110.31 1682.49L101.08 1673.22C100.94 1673.08 100.75 1673 100.55 1673C100.35 1673 100.16 1673.08 100.02 1673.22L94.36999999999999 1678.89C94.32999999999998 1678.93 94.28999999999999 1678.98 94.25999999999999 1679.0400000000002C94.13 1679.2600000000002 93.52 1680.5400000000002 94.8 1683.5800000000002C96.42 1687.43 100.31 1692.4600000000003 106.36 1698.5400000000002C112.43 1704.63 117.45 1708.5500000000002 121.28 1710.1700000000003C122.73 1710.7800000000002 123.78 1710.9600000000003 124.5 1710.9600000000003C125.28 1710.9600000000003 125.67 1710.7500000000002 125.79 1710.6800000000003C125.84 1710.6500000000003 125.88000000000001 1710.6200000000003 125.93 1710.5700000000004L131.57 1704.9100000000003C131.85999999999999 1704.6100000000004 131.85999999999999 1704.1300000000003 131.57 1703.8400000000004Z " fill="#ffffff" fill-opacity="1" transform="matrix(1,0,0,1,-94,-1673)"></path><path id="SvgjsPath1023" d="M124.97 1709.39C124.39 1709.5400000000002 119.99 1710.0800000000002 107.43 1697.47C94.93 1684.92 95.41000000000001 1680.45 95.55000000000001 1679.84L100.55000000000001 1674.83L108.71000000000001 1683.02L105.27000000000001 1686.48C105.00000000000001 1686.75 104.98 1687.2 105.23 1687.5C106.87 1689.46 108.84 1691.59 111.06 1693.82C113.28 1696.05 115.4 1698.02 117.35000000000001 1699.6699999999998C117.65 1699.9299999999998 118.09 1699.9099999999999 118.37 1699.6299999999999L121.81 1696.1699999999998L129.97 1704.37ZM122.34 1694.57C122.05 1694.27 121.57000000000001 1694.27 121.28 1694.57L117.79 1698.07C116.02000000000001 1696.54 114.12 1694.75 112.12 1692.75C110.13000000000001 1690.75 108.35000000000001 1688.83 106.83 1687.05L110.31 1683.56C110.61 1683.26 110.61 1682.78 110.31 1682.49L101.08 1673.22C100.94 1673.08 100.75 1673 100.55 1673C100.35 1673 100.16 1673.08 100.02 1673.22L94.36999999999999 1678.89C94.32999999999998 1678.93 94.28999999999999 1678.98 94.25999999999999 1679.0400000000002C94.13 1679.2600000000002 93.52 1680.5400000000002 94.8 1683.5800000000002C96.42 1687.43 100.31 1692.4600000000003 106.36 1698.5400000000002C112.43 1704.63 117.45 1708.5500000000002 121.28 1710.1700000000003C122.73 1710.7800000000002 123.78 1710.9600000000003 124.5 1710.9600000000003C125.28 1710.9600000000003 125.67 1710.7500000000002 125.79 1710.6800000000003C125.84 1710.6500000000003 125.88000000000001 1710.6200000000003 125.93 1710.5700000000004L131.57 1704.9100000000003C131.85999999999999 1704.6100000000004 131.85999999999999 1704.1300000000003 131.57 1703.8400000000004Z " fill="#ffffff" fill-opacity="1" transform="matrix(1,0,0,1,-94,-1673)"></path><path id="SvgjsPath1024" d="M128.81 1685.71L124.42 1685.71C124 1685.71 123.66 1686.05 123.66 1686.46L123.66 1690.88L119.66 1690.88L119.66 1686.46C119.66 1686.05 119.32 1685.71 118.89999999999999 1685.71L114.50999999999999 1685.71L114.50999999999999 1681.69L118.89999999999999 1681.69C119.32 1681.69 119.66 1681.3500000000001 119.66 1680.93L119.66 1676.51L123.66 1676.51L123.66 1680.93C123.66 1681.3500000000001 124 1681.69 124.42 1681.69L128.81 1681.69ZM125.17 1680.17L125.17 1675.76C125.17 1675.34 124.83 1675 124.42 1675L118.9 1675C118.49000000000001 1675 118.15 1675.34 118.15 1675.76L118.15 1680.17L113.75 1680.17C113.34 1680.17 113 1680.51 113 1680.93L113 1686.46C113 1686.88 113.34 1687.22 113.75 1687.22L118.15 1687.22L118.15 1691.64C118.15 1692.0500000000002 118.49000000000001 1692.39 118.9 1692.39L124.42 1692.39C124.83 1692.39 125.17 1692.0500000000002 125.17 1691.64L125.17 1687.22L129.57 1687.22C129.98 1687.22 130.32 1686.88 130.32 1686.46L130.32 1680.93C130.32 1680.51 129.98 1680.17 129.57 1680.17Z " fill="#ffffff" fill-opacity="1" transform="matrix(1,0,0,1,-94,-1673)"></path><path id="SvgjsPath1025" d="M128.81 1685.71L124.42 1685.71C124 1685.71 123.66 1686.05 123.66 1686.46L123.66 1690.88L119.66 1690.88L119.66 1686.46C119.66 1686.05 119.32 1685.71 118.89999999999999 1685.71L114.50999999999999 1685.71L114.50999999999999 1681.69L118.89999999999999 1681.69C119.32 1681.69 119.66 1681.3500000000001 119.66 1680.93L119.66 1676.51L123.66 1676.51L123.66 1680.93C123.66 1681.3500000000001 124 1681.69 124.42 1681.69L128.81 1681.69ZM125.17 1680.17L125.17 1675.76C125.17 1675.34 124.83 1675 124.42 1675L118.9 1675C118.49000000000001 1675 118.15 1675.34 118.15 1675.76L118.15 1680.17L113.75 1680.17C113.34 1680.17 113 1680.51 113 1680.93L113 1686.46C113 1686.88 113.34 1687.22 113.75 1687.22L118.15 1687.22L118.15 1691.64C118.15 1692.0500000000002 118.49000000000001 1692.39 118.9 1692.39L124.42 1692.39C124.83 1692.39 125.17 1692.0500000000002 125.17 1691.64L125.17 1687.22L129.57 1687.22C129.98 1687.22 130.32 1686.88 130.32 1686.46L130.32 1680.93C130.32 1680.51 129.98 1680.17 129.57 1680.17Z " fill="#ffffff" fill-opacity="1" transform="matrix(1,0,0,1,-94,-1673)"></path><path id="SvgjsPath1026" d="M105.66 1680.6L105.28999999999999 1680.2199999999998C104.99 1679.9299999999998 104.50999999999999 1679.9299999999998 104.22 1680.2199999999998C103.92999999999999 1680.5199999999998 103.92999999999999 1680.9999999999998 104.22 1681.2899999999997L104.6 1681.6699999999998C104.74 1681.82 104.94 1681.8899999999999 105.13 1681.8899999999999C105.32 1681.8899999999999 105.50999999999999 1681.82 105.66 1681.6699999999998C105.96 1681.37 105.96 1680.8899999999999 105.66 1680.6 " fill="#ffffff" fill-opacity="1" transform="matrix(1,0,0,1,-94,-1673)"></path><path id="SvgjsPath1027" d="M105.66 1680.6L105.28999999999999 1680.2199999999998C104.99 1679.9299999999998 104.50999999999999 1679.9299999999998 104.22 1680.2199999999998C103.92999999999999 1680.5199999999998 103.92999999999999 1680.9999999999998 104.22 1681.2899999999997L104.6 1681.6699999999998C104.74 1681.82 104.94 1681.8899999999999 105.13 1681.8899999999999C105.32 1681.8899999999999 105.50999999999999 1681.82 105.66 1681.6699999999998C105.96 1681.37 105.96 1680.8899999999999 105.66 1680.6 " fill="#ffffff" fill-opacity="1" transform="matrix(1,0,0,1,-94,-1673)"></path><path id="SvgjsPath1028" d="M103.62 1678.57L101.29 1676.22C100.99000000000001 1675.93 100.51 1675.93 100.22000000000001 1676.22C99.93 1676.52 99.93 1677 100.22000000000001 1677.29L102.56000000000002 1679.6299999999999C102.70000000000002 1679.78 102.89000000000001 1679.86 103.09000000000002 1679.86C103.28000000000002 1679.86 103.47000000000001 1679.78 103.62000000000002 1679.6299999999999C103.91000000000003 1679.34 103.91000000000003 1678.86 103.62000000000002 1678.57 " fill="#ffffff" fill-opacity="1" transform="matrix(1,0,0,1,-94,-1673)"></path><path id="SvgjsPath1029" d="M103.62 1678.57L101.29 1676.22C100.99000000000001 1675.93 100.51 1675.93 100.22000000000001 1676.22C99.93 1676.52 99.93 1677 100.22000000000001 1677.29L102.56000000000002 1679.6299999999999C102.70000000000002 1679.78 102.89000000000001 1679.86 103.09000000000002 1679.86C103.28000000000002 1679.86 103.47000000000001 1679.78 103.62000000000002 1679.6299999999999C103.91000000000003 1679.34 103.91000000000003 1678.86 103.62000000000002 1678.57 " fill="#ffffff" fill-opacity="1" transform="matrix(1,0,0,1,-94,-1673)"></path><path id="SvgjsPath1030" d="M124.97 1709.39C124.39 1709.5400000000002 119.99 1710.0800000000002 107.43 1697.47C94.93 1684.92 95.41000000000001 1680.45 95.55000000000001 1679.84L100.55000000000001 1674.83L108.71000000000001 1683.02L105.27000000000001 1686.48C105.00000000000001 1686.75 104.98 1687.2 105.23 1687.5C106.87 1689.46 108.84 1691.59 111.06 1693.82C113.28 1696.05 115.4 1698.02 117.35000000000001 1699.6699999999998C117.65 1699.9299999999998 118.09 1699.9099999999999 118.37 1699.6299999999999L121.81 1696.1699999999998L129.97 1704.37ZM122.34 1694.57C122.05 1694.27 121.57000000000001 1694.27 121.28 1694.57L117.79 1698.07C116.02000000000001 1696.54 114.12 1694.75 112.12 1692.75C110.13000000000001 1690.75 108.35000000000001 1688.83 106.83 1687.05L110.31 1683.56C110.61 1683.26 110.61 1682.78 110.31 1682.49L101.08 1673.22C100.94 1673.08 100.75 1673 100.55 1673C100.35 1673 100.16 1673.08 100.02 1673.22L94.36999999999999 1678.89C94.32999999999998 1678.93 94.28999999999999 1678.98 94.25999999999999 1679.0400000000002C94.13 1679.2600000000002 93.52 1680.5400000000002 94.8 1683.5800000000002C96.42 1687.43 100.31 1692.4600000000003 106.36 1698.5400000000002C112.43 1704.63 117.45 1708.5500000000002 121.28 1710.1700000000003C122.73 1710.7800000000002 123.78 1710.9600000000003 124.5 1710.9600000000003C125.28 1710.9600000000003 125.67 1710.7500000000002 125.79 1710.6800000000003C125.84 1710.6500000000003 125.88000000000001 1710.6200000000003 125.93 1710.5700000000004L131.57 1704.9100000000003C131.85999999999999 1704.6100000000004 131.85999999999999 1704.1300000000003 131.57 1703.8400000000004Z " fill="#ffffff" fill-opacity="1" transform="matrix(1,0,0,1,-94,-1673)"></path><path id="SvgjsPath1031" d="M128.81 1685.71L124.42 1685.71C124 1685.71 123.66 1686.05 123.66 1686.46L123.66 1690.88L119.66 1690.88L119.66 1686.46C119.66 1686.05 119.32 1685.71 118.89999999999999 1685.71L114.50999999999999 1685.71L114.50999999999999 1681.69L118.89999999999999 1681.69C119.32 1681.69 119.66 1681.3500000000001 119.66 1680.93L119.66 1676.51L123.66 1676.51L123.66 1680.93C123.66 1681.3500000000001 124 1681.69 124.42 1681.69L128.81 1681.69ZM125.17 1680.17L125.17 1675.76C125.17 1675.34 124.83 1675 124.42 1675L118.9 1675C118.49000000000001 1675 118.15 1675.34 118.15 1675.76L118.15 1680.17L113.75 1680.17C113.34 1680.17 113 1680.51 113 1680.93L113 1686.46C113 1686.88 113.34 1687.22 113.75 1687.22L118.15 1687.22L118.15 1691.64C118.15 1692.0500000000002 118.49000000000001 1692.39 118.9 1692.39L124.42 1692.39C124.83 1692.39 125.17 1692.0500000000002 125.17 1691.64L125.17 1687.22L129.57 1687.22C129.98 1687.22 130.32 1686.88 130.32 1686.46L130.32 1680.93C130.32 1680.51 129.98 1680.17 129.57 1680.17Z " fill="#ffffff" fill-opacity="1" transform="matrix(1,0,0,1,-94,-1673)"></path><path id="SvgjsPath1032" d="M105.66 1680.6L105.28999999999999 1680.2199999999998C104.99 1679.9299999999998 104.50999999999999 1679.9299999999998 104.22 1680.2199999999998C103.92999999999999 1680.5199999999998 103.92999999999999 1680.9999999999998 104.22 1681.2899999999997L104.6 1681.6699999999998C104.74 1681.82 104.94 1681.8899999999999 105.13 1681.8899999999999C105.32 1681.8899999999999 105.50999999999999 1681.82 105.66 1681.6699999999998C105.96 1681.37 105.96 1680.8899999999999 105.66 1680.6 " fill="#ffffff" fill-opacity="1" transform="matrix(1,0,0,1,-94,-1673)"></path><path id="SvgjsPath1033" d="M103.62 1678.57L101.29 1676.22C100.99000000000001 1675.93 100.51 1675.93 100.22000000000001 1676.22C99.93 1676.52 99.93 1677 100.22000000000001 1677.29L102.56000000000002 1679.6299999999999C102.70000000000002 1679.78 102.89000000000001 1679.86 103.09000000000002 1679.86C103.28000000000002 1679.86 103.47000000000001 1679.78 103.62000000000002 1679.6299999999999C103.91000000000003 1679.34 103.91000000000003 1678.86 103.62000000000002 1678.57 " fill="#ffffff" fill-opacity="1" transform="matrix(1,0,0,1,-94,-1673)"></path></svg>