<svg id="SvgjsSvg1008" xmlns="http://www.w3.org/2000/svg" version="1.1" xmlns:xlink="http://www.w3.org/1999/xlink" xmlns:svgjs="http://svgjs.com/svgjs" width="16" height="38"><defs id="SvgjsDefs1009"></defs><path id="SvgjsPath1010" d="M41.6 1134.26L54.400000000000006 1134.26L54.400000000000006 1143.36C54.400000000000006 1146.85 51.53000000000001 1149.6899999999998 48.00000000000001 1149.6899999999998C44.470000000000006 1149.6899999999998 41.60000000000001 1146.85 41.60000000000001 1143.36ZM41.6 1128.58L54.400000000000006 1128.58L54.400000000000006 1132.6699999999998L41.60000000000001 1132.6699999999998ZM56 1127.79C56 1127.35 55.64 1127 55.2 1127L40.800000000000004 1127C40.36000000000001 1127 40.00000000000001 1127.35 40.00000000000001 1127.79L40.00000000000001 1143.36C40.00000000000001 1147.4599999999998 43.16000000000001 1150.84 47.20000000000001 1151.24L47.20000000000001 1163.02L41.53000000000001 1163.02C41.09000000000001 1163.02 40.73000000000001 1163.37 40.73000000000001 1163.81C40.73000000000001 1164.25 41.09000000000001 1164.6 41.53000000000001 1164.6L54.470000000000006 1164.6C54.910000000000004 1164.6 55.27 1164.25 55.27 1163.81C55.27 1163.37 54.910000000000004 1163.02 54.470000000000006 1163.02L48.800000000000004 1163.02L48.800000000000004 1151.24C52.84 1150.84 56.00000000000001 1147.46 56.00000000000001 1143.36Z " fill="#ffffff" fill-opacity="1" transform="matrix(1,0,0,1,-40,-1127)"></path></svg>