<svg id="SvgjsSvg1028" xmlns="http://www.w3.org/2000/svg" version="1.1" xmlns:xlink="http://www.w3.org/1999/xlink" xmlns:svgjs="http://svgjs.com/svgjs" width="33" height="32"><defs id="SvgjsDefs1029"></defs><path id="SvgjsPath1030" d="M63.37 1943.69C63.37 1936.13 57.25 1930 49.69 1930C42.129999999999995 1930 36 1936.13 36 1943.69C36 1951.25 42.13 1957.3700000000001 49.69 1957.3700000000001C57.25 1957.3700000000001 63.37 1951.2500000000002 63.37 1943.69Z " fill-opacity="0" fill="#ffffff" stroke-dasharray="0" stroke-linejoin="round" stroke-linecap="round" stroke-opacity="1" stroke="#ffffff" stroke-miterlimit="50" stroke-width="2" transform="matrix(1,0,0,1,-33,-1927)"></path><path id="SvgjsPath1031" d="M44 1935.3C45.5 1934.34 47.26 1934 49.21 1934 " fill-opacity="0" fill="#ffffff" stroke-dasharray="0" stroke-linejoin="round" stroke-linecap="round" stroke-opacity="1" stroke="#ffffff" stroke-miterlimit="50" stroke-width="2" transform="matrix(1,0,0,1,-33,-1927)"></path><path id="SvgjsPath1032" d="M40.52 1929.12C39.03 1927.6299999999999 36.61 1927.6299999999999 35.120000000000005 1929.12C33.63 1930.61 33.63 1933.03 35.120000000000005 1934.52Z " fill-opacity="0" fill="#ffffff" stroke-dasharray="0" stroke-linejoin="round" stroke-linecap="round" stroke-opacity="1" stroke="#ffffff" stroke-miterlimit="50" stroke-width="2" transform="matrix(1,0,0,1,-33,-1927)"></path><path id="SvgjsPath1033" d="M38 1932L39.79 1933.79 " fill-opacity="0" fill="#ffffff" stroke-dasharray="0" stroke-linejoin="round" stroke-linecap="round" stroke-opacity="1" stroke="#ffffff" stroke-miterlimit="50" stroke-width="2" transform="matrix(1,0,0,1,-33,-1927)"></path><path id="SvgjsPath1034" d="M63.4 1934.52C64.89 1933.03 64.89 1930.61 63.4 1929.12C61.91 1927.6299999999999 59.489999999999995 1927.6299999999999 58 1929.12Z " fill-opacity="0" fill="#ffffff" stroke-dasharray="0" stroke-linejoin="round" stroke-linecap="round" stroke-opacity="1" stroke="#ffffff" stroke-miterlimit="50" stroke-width="2" transform="matrix(1,0,0,1,-33,-1927)"></path><path id="SvgjsPath1035" d="M60.79 1932L59 1933.79 " fill-opacity="0" fill="#ffffff" stroke-dasharray="0" stroke-linejoin="round" stroke-linecap="round" stroke-opacity="1" stroke="#ffffff" stroke-miterlimit="50" stroke-width="2" transform="matrix(1,0,0,1,-33,-1927)"></path><path id="SvgjsPath1036" d="M42.61 1956L40 1957.96 " fill-opacity="0" fill="#ffffff" stroke-dasharray="0" stroke-linejoin="round" stroke-linecap="round" stroke-opacity="1" stroke="#ffffff" stroke-miterlimit="50" stroke-width="2" transform="matrix(1,0,0,1,-33,-1927)"></path><path id="SvgjsPath1037" d="M57 1956L59.61 1957.96 " fill-opacity="0" fill="#ffffff" stroke-dasharray="0" stroke-linejoin="round" stroke-linecap="round" stroke-opacity="1" stroke="#ffffff" stroke-miterlimit="50" stroke-width="2" transform="matrix(1,0,0,1,-33,-1927)"></path><path id="SvgjsPath1038" d="M49.96 1942C48.88 1942 48 1942.88 48 1943.96C48 1945.03 48.88 1945.91 49.96 1945.91C51.04 1945.91 51.910000000000004 1945.03 51.910000000000004 1943.96C51.910000000000004 1942.88 51.040000000000006 1942 49.96 1942Z " fill-opacity="0" fill="#ffffff" stroke-dasharray="0" stroke-linejoin="round" stroke-linecap="round" stroke-opacity="1" stroke="#ffffff" stroke-miterlimit="50" stroke-width="2" transform="matrix(1,0,0,1,-33,-1927)"></path><path id="SvgjsPath1039" d="M47.79 1942.79L42 1937 " fill-opacity="0" fill="#ffffff" stroke-dasharray="0" stroke-linejoin="round" stroke-linecap="round" stroke-opacity="1" stroke="#ffffff" stroke-miterlimit="50" stroke-width="2" transform="matrix(1,0,0,1,-33,-1927)"></path><path id="SvgjsPath1040" d="M52.88 1946.88L51 1945 " fill-opacity="0" fill="#ffffff" stroke-dasharray="0" stroke-linejoin="round" stroke-linecap="round" stroke-opacity="1" stroke="#ffffff" stroke-miterlimit="50" stroke-width="2" transform="matrix(1,0,0,1,-33,-1927)"></path><path id="SvgjsPath1041" d="M48 1934L48 1937 " fill-opacity="0" fill="#ffffff" stroke-dasharray="0" stroke-linejoin="round" stroke-linecap="round" stroke-opacity="1" stroke="#ffffff" stroke-miterlimit="50" stroke-width="2" transform="matrix(1,0,0,1,-33,-1927)"></path><path id="SvgjsPath1042" d="M63.37 1943.69C63.37 1936.13 57.25 1930 49.69 1930C42.129999999999995 1930 36 1936.13 36 1943.69C36 1951.25 42.13 1957.3700000000001 49.69 1957.3700000000001C57.25 1957.3700000000001 63.37 1951.2500000000002 63.37 1943.69Z " fill-opacity="0" fill="#ffffff" stroke-dasharray="0" stroke-linejoin="round" stroke-linecap="round" stroke-opacity="1" stroke="#ffffff" stroke-miterlimit="50" stroke-width="2" transform="matrix(1,0,0,1,-33,-1927)"></path><path id="SvgjsPath1043" d="M44 1935.3C45.5 1934.34 47.26 1934 49.21 1934 " fill-opacity="0" fill="#ffffff" stroke-dasharray="0" stroke-linejoin="round" stroke-linecap="round" stroke-opacity="1" stroke="#ffffff" stroke-miterlimit="50" stroke-width="2" transform="matrix(1,0,0,1,-33,-1927)"></path><path id="SvgjsPath1044" d="M40.52 1929.12C39.03 1927.6299999999999 36.61 1927.6299999999999 35.120000000000005 1929.12C33.63 1930.61 33.63 1933.03 35.120000000000005 1934.52Z " fill-opacity="0" fill="#ffffff" stroke-dasharray="0" stroke-linejoin="round" stroke-linecap="round" stroke-opacity="1" stroke="#ffffff" stroke-miterlimit="50" stroke-width="2" transform="matrix(1,0,0,1,-33,-1927)"></path><path id="SvgjsPath1045" d="M38 1932L39.79 1933.79 " fill-opacity="0" fill="#ffffff" stroke-dasharray="0" stroke-linejoin="round" stroke-linecap="round" stroke-opacity="1" stroke="#ffffff" stroke-miterlimit="50" stroke-width="2" transform="matrix(1,0,0,1,-33,-1927)"></path><path id="SvgjsPath1046" d="M63.4 1934.52C64.89 1933.03 64.89 1930.61 63.4 1929.12C61.91 1927.6299999999999 59.489999999999995 1927.6299999999999 58 1929.12Z " fill-opacity="0" fill="#ffffff" stroke-dasharray="0" stroke-linejoin="round" stroke-linecap="round" stroke-opacity="1" stroke="#ffffff" stroke-miterlimit="50" stroke-width="2" transform="matrix(1,0,0,1,-33,-1927)"></path><path id="SvgjsPath1047" d="M60.79 1932L59 1933.79 " fill-opacity="0" fill="#ffffff" stroke-dasharray="0" stroke-linejoin="round" stroke-linecap="round" stroke-opacity="1" stroke="#ffffff" stroke-miterlimit="50" stroke-width="2" transform="matrix(1,0,0,1,-33,-1927)"></path><path id="SvgjsPath1048" d="M42.61 1956L40 1957.96 " fill-opacity="0" fill="#ffffff" stroke-dasharray="0" stroke-linejoin="round" stroke-linecap="round" stroke-opacity="1" stroke="#ffffff" stroke-miterlimit="50" stroke-width="2" transform="matrix(1,0,0,1,-33,-1927)"></path><path id="SvgjsPath1049" d="M57 1956L59.61 1957.96 " fill-opacity="0" fill="#ffffff" stroke-dasharray="0" stroke-linejoin="round" stroke-linecap="round" stroke-opacity="1" stroke="#ffffff" stroke-miterlimit="50" stroke-width="2" transform="matrix(1,0,0,1,-33,-1927)"></path><path id="SvgjsPath1050" d="M49.96 1942C48.88 1942 48 1942.88 48 1943.96C48 1945.03 48.88 1945.91 49.96 1945.91C51.04 1945.91 51.910000000000004 1945.03 51.910000000000004 1943.96C51.910000000000004 1942.88 51.040000000000006 1942 49.96 1942Z " fill-opacity="0" fill="#ffffff" stroke-dasharray="0" stroke-linejoin="round" stroke-linecap="round" stroke-opacity="1" stroke="#ffffff" stroke-miterlimit="50" stroke-width="2" transform="matrix(1,0,0,1,-33,-1927)"></path><path id="SvgjsPath1051" d="M47.79 1942.79L42 1937 " fill-opacity="0" fill="#ffffff" stroke-dasharray="0" stroke-linejoin="round" stroke-linecap="round" stroke-opacity="1" stroke="#ffffff" stroke-miterlimit="50" stroke-width="2" transform="matrix(1,0,0,1,-33,-1927)"></path><path id="SvgjsPath1052" d="M52.88 1946.88L51 1945 " fill-opacity="0" fill="#ffffff" stroke-dasharray="0" stroke-linejoin="round" stroke-linecap="round" stroke-opacity="1" stroke="#ffffff" stroke-miterlimit="50" stroke-width="2" transform="matrix(1,0,0,1,-33,-1927)"></path><path id="SvgjsPath1053" d="M48 1934L48 1937 " fill-opacity="0" fill="#ffffff" stroke-dasharray="0" stroke-linejoin="round" stroke-linecap="round" stroke-opacity="1" stroke="#ffffff" stroke-miterlimit="50" stroke-width="2" transform="matrix(1,0,0,1,-33,-1927)"></path></svg>