<svg id="SvgjsSvg1021" xmlns="http://www.w3.org/2000/svg" version="1.1" xmlns:xlink="http://www.w3.org/1999/xlink" xmlns:svgjs="http://svgjs.com/svgjs" width="26" height="37"><defs id="SvgjsDefs1022"></defs><path id="SvgjsPath1023" d="M60 741.23C60 740.74 59.6 740.34 59.1 740.34L53.980000000000004 740.34L53.980000000000004 739.0600000000001C53.980000000000004 738.57 53.580000000000005 738.1700000000001 53.080000000000005 738.1700000000001L49.67 738.1700000000001C49.29 736.9100000000001 48.120000000000005 736.0000000000001 46.74 736.0000000000001C45.36 736.0000000000001 44.190000000000005 736.9100000000001 43.81 738.1700000000001L40.400000000000006 738.1700000000001C39.900000000000006 738.1700000000001 39.50000000000001 738.57 39.50000000000001 739.0600000000001L39.50000000000001 740.34L34.900000000000006 740.34C34.400000000000006 740.34 34.00000000000001 740.74 34.00000000000001 741.23L34.00000000000001 771.59C34.00000000000001 772.08 34.400000000000006 772.48 34.900000000000006 772.48L59.10000000000001 772.48C59.60000000000001 772.48 60.00000000000001 772.08 60.00000000000001 771.59ZM58.21 770.69L35.79 770.69L35.79 742.1300000000001L39.5 742.1300000000001L39.5 743.4000000000001C39.5 743.9000000000001 39.9 744.3000000000001 40.4 744.3000000000001L53.08 744.3000000000001C53.58 744.3000000000001 53.98 743.9000000000001 53.98 743.4000000000001L53.98 742.1300000000001L58.209999999999994 742.1300000000001ZM49.41 760.57C48.919999999999995 760.57 48.519999999999996 760.97 48.519999999999996 761.47L48.519999999999996 766.72L39.339999999999996 766.72L39.339999999999996 746.6700000000001C39.339999999999996 746.1800000000001 38.93 745.7800000000001 38.44 745.7800000000001C37.94 745.7800000000001 37.54 746.1800000000001 37.54 746.6700000000001L37.54 767.6100000000001C37.54 768.1100000000001 37.94 768.5100000000001 38.44 768.5100000000001L49.41 768.5100000000001C49.459999999999994 768.5100000000001 49.5 768.5100000000001 49.54 768.5000000000001L49.55 768.5000000000001C49.58 768.5000000000001 49.61 768.4900000000001 49.64 768.4800000000001C49.79 768.4400000000002 49.93 768.3700000000001 50.04 768.2600000000001L50.04 768.2500000000001C50.04 768.2500000000001 50.04 768.2500000000001 50.05 768.2500000000001L56.199999999999996 762.1000000000001C56.199999999999996 762.0900000000001 56.199999999999996 762.0900000000001 56.199999999999996 762.0900000000001C56.209999999999994 762.0900000000001 56.209999999999994 762.0900000000001 56.209999999999994 762.0900000000001C56.31999999999999 761.9800000000001 56.38999999999999 761.8400000000001 56.42999999999999 761.6900000000002C56.42999999999999 761.6900000000002 56.42999999999999 761.6900000000002 56.42999999999999 761.6800000000002C56.43999999999999 761.6500000000002 56.449999999999996 761.6200000000002 56.449999999999996 761.5900000000001L56.449999999999996 761.5800000000002C56.459999999999994 761.5400000000002 56.459999999999994 761.5000000000001 56.459999999999994 761.4600000000002L56.459999999999994 746.6700000000002C56.459999999999994 746.1800000000002 56.059999999999995 745.7800000000002 55.559999999999995 745.7800000000002C55.06999999999999 745.7800000000002 54.669999999999995 746.1800000000002 54.669999999999995 746.6700000000002L54.669999999999995 760.5700000000002ZM41.29 742.5L41.29 739.96L44.57 739.96C45.07 739.96 45.47 739.5600000000001 45.47 739.0600000000001C45.47 738.36 46.04 737.7900000000001 46.74 737.7900000000001C47.440000000000005 737.7900000000001 48.010000000000005 738.3600000000001 48.010000000000005 739.0600000000001C48.010000000000005 739.5600000000001 48.410000000000004 739.96 48.910000000000004 739.96L52.190000000000005 739.96L52.190000000000005 742.5ZM42.94 763.38L42.94 764.11C42.94 764.6 43.339999999999996 765 43.839999999999996 765C44.33 765 44.73 764.6 44.73 764.11L44.73 763.38L45.459999999999994 763.38C45.959999999999994 763.38 46.35999999999999 762.98 46.35999999999999 762.48C46.35999999999999 761.98 45.959999999999994 761.58 45.459999999999994 761.58L44.73 761.58L44.73 760.85C44.73 760.36 44.33 759.96 43.839999999999996 759.96C43.339999999999996 759.96 42.94 760.36 42.94 760.85L42.94 761.58L42.21 761.58C41.71 761.58 41.31 761.98 41.31 762.48C41.31 762.98 41.71 763.38 42.21 763.38ZM47.49 757.69C47.99 757.69 48.39 757.2900000000001 48.39 756.7900000000001C48.39 756.3000000000001 47.99 755.9000000000001 47.49 755.9000000000001L42.21 755.9000000000001C41.71 755.9000000000001 41.31 756.3000000000001 41.31 756.7900000000001C41.31 757.2900000000001 41.71 757.69 42.21 757.69ZM47.49 753.93C47.99 753.93 48.39 753.53 48.39 753.04C48.39 752.54 47.99 752.14 47.49 752.14L42.21 752.14C41.71 752.14 41.31 752.54 41.31 753.04C41.31 753.53 41.71 753.93 42.21 753.93ZM47.49 750.13C47.99 750.13 48.39 749.73 48.39 749.24C48.39 748.74 47.99 748.34 47.49 748.34L42.21 748.34C41.71 748.34 41.31 748.74 41.31 749.24C41.31 749.73 41.71 750.13 42.21 750.13ZM50.31 762.36L53.400000000000006 762.36L50.31 765.45ZM51.79 757.69C52.29 757.69 52.69 757.2900000000001 52.69 756.7900000000001C52.69 756.3000000000001 52.29 755.9000000000001 51.79 755.9000000000001L50.519999999999996 755.9000000000001C50.019999999999996 755.9000000000001 49.62 756.3000000000001 49.62 756.7900000000001C49.62 757.2900000000001 50.019999999999996 757.69 50.519999999999996 757.69ZM51.79 750.13C52.29 750.13 52.69 749.73 52.69 749.24C52.69 748.74 52.29 748.34 51.79 748.34L50.519999999999996 748.34C50.019999999999996 748.34 49.62 748.74 49.62 749.24C49.62 749.73 50.019999999999996 750.13 50.519999999999996 750.13ZM50.52 752.14L51.790000000000006 752.14C52.290000000000006 752.14 52.690000000000005 752.54 52.690000000000005 753.04C52.690000000000005 753.53 52.290000000000006 753.93 51.790000000000006 753.93L50.52 753.93C50.02 753.93 49.620000000000005 753.53 49.620000000000005 753.04C49.620000000000005 752.54 50.02 752.14 50.52 752.14Z " fill="#ffffff" fill-opacity="1" transform="matrix(1,0,0,1,-34,-736)"></path></svg>